<svg width="32" height="32" viewBox="0 0 32 32" fill="none" xmlns="http://www.w3.org/2000/svg">
<circle cx="16" cy="16" r="16" fill="#202020"/>
<path fill-rule="evenodd" clip-rule="evenodd" d="M16.3169 10L18.9308 12.14L17.6812 13.163L18.9304 14.1857L16.3165 16.3257L15.0673 15.303L13.8187 16.3251L11.2048 14.1852L12.4533 13.163L11.2043 12.1405L13.8183 10.0005L15.0673 11.023L16.3169 10Z" fill="#A419BD"/>
<path fill-rule="evenodd" clip-rule="evenodd" d="M6 11H10.5493V17.5394H16.521V22H6.89282V21.9992H6V11Z" fill="#A419BD"/>
<path fill-rule="evenodd" clip-rule="evenodd" d="M19.593 16.1531V10.2104H24.779V10.2137C26.0074 10.2236 27.0001 11.1838 27.0001 12.3667C27.0001 13.5497 26.0074 14.5099 24.779 14.5198V16.1531H19.593Z" fill="#A419BD"/>
<path fill-rule="evenodd" clip-rule="evenodd" d="M24.8456 17.7843C24.8456 18.4415 23.1521 18.9743 21.0629 18.9743C18.9738 18.9743 17.2803 18.4415 17.2803 17.7843C17.2803 17.127 18.9738 16.5942 21.0629 16.5942C23.1521 16.5942 24.8456 17.127 24.8456 17.7843ZM17.3663 22V19.2439H24.7597V22H17.3663Z" fill="#A419BD"/>
</svg>
