<svg width="82" height="87" viewBox="0 0 82 87" fill="none" xmlns="http://www.w3.org/2000/svg">
<path d="M34.8171 70.3759C35.0313 67.279 33.5676 62.3435 31.7648 59.8267C29.962 57.3099 27.7665 55.0697 26.1064 52.4458C23.6432 48.5457 22.4651 43.7887 23.0809 39.2192C23.6967 34.6496 26.1511 30.2943 29.8995 27.599C33.1124 25.2875 37.1019 24.2433 41.0556 23.9398C44.572 23.6721 48.1776 23.9666 51.4798 25.1982C54.782 26.4298 57.7808 28.6611 59.5836 31.6955C61.8951 35.5957 61.9576 43.5477 60.967 47.9656C59.9763 52.3834 58.0218 53.4097 56.1118 57.5152C54.2019 61.6206 52.3723 65.8688 51.8725 70.367" stroke="#0268FF" stroke-width="3.30864" stroke-miterlimit="10" stroke-linecap="round"/>
<path d="M29.5691 71.661C30.89 70.4473 33.0409 70.3759 34.9687 70.3848C39.8774 70.4026 44.795 70.4294 49.7036 70.4473C51.2655 70.4473 52.8541 70.4651 54.3267 70.8935C55.7993 71.3219 57.3255 71.9109 57.62 73.5442C58.2537 77.0427 56.7275 78.0245 55.1121 78.6403C53.0415 79.4346 50.3195 79.265 48.0525 79.2739C43.1796 79.2918 38.3066 79.3186 33.4336 79.3364C31.3363 79.3453 29.587 79.0508 28.9087 77.2569C28.2661 75.5523 28.0519 73.0622 29.5691 71.661Z" stroke="#0268FF" stroke-width="3.30864" stroke-miterlimit="10" stroke-linecap="round"/>
<path d="M31.4345 79.39C30.9972 80.9965 30.6848 82.8796 32.3448 84.0399C33.6657 84.9591 35.7452 85.0484 37.6194 85.0841C40.8681 85.1466 44.1256 85.2001 47.3743 85.2626C49.07 85.2894 50.8282 85.2715 52.3544 84.7806C54.4428 84.1113 55.8618 81.9068 54.657 79.3275" stroke="#0268FF" stroke-width="3.30864" stroke-miterlimit="10" stroke-linecap="round"/>
<path d="M65.3401 53.3919L80.2625 54.3112" stroke="#0268FF" stroke-width="3.30864" stroke-miterlimit="10" stroke-linecap="round"/>
<path d="M65.6433 30.2497L78.629 22.6725" stroke="#0268FF" stroke-width="3.30864" stroke-miterlimit="10" stroke-linecap="round"/>
<path d="M41.0913 17.4961C41.0913 12.2125 41.0913 6.92903 41.0913 1.64551" stroke="#0268FF" stroke-width="3.30864" stroke-miterlimit="10" stroke-linecap="round"/>
<path d="M20.0284 28.4647L9.61304 19.9861" stroke="#0268FF" stroke-width="3.30864" stroke-miterlimit="10" stroke-linecap="round"/>
<path d="M16.6191 46.5019L2.5 50.0986" stroke="#0268FF" stroke-width="3.30864" stroke-miterlimit="10" stroke-linecap="round"/>
<path d="M42.9565 69.9207L43.1349 55.757C43.1349 55.2215 43.1528 54.6592 43.4116 54.1862C43.6704 53.7132 44.2684 53.383 44.7593 53.5972C45.4733 53.9095 45.3126 55.0965 44.6343 55.4714C43.956 55.8462 43.0903 55.6053 42.421 55.2215C40.9127 54.3736 39.8327 52.8118 39.5561 51.0982C39.2794 49.3846 39.8327 47.5729 40.993 46.2966C41.4749 45.7701 42.1086 45.306 42.8226 45.2613C43.5366 45.2167 44.322 45.6897 44.4023 46.4037C44.4915 47.2159 43.599 47.9031 42.7869 47.8049C41.9747 47.7068 41.3232 47.0374 40.9841 46.2966C40.4039 45.0204 40.6003 43.4317 41.466 42.3251C42.3317 41.2184 43.8311 40.665 45.2055 40.9239" stroke="#0268FF" stroke-width="3.30864" stroke-miterlimit="10" stroke-linecap="round"/>
</svg>
