<svg width="92" height="81" viewBox="0 0 92 81" fill="none" xmlns="http://www.w3.org/2000/svg">
<g clip-path="url(#clip0_394_263)">
<path d="M7.03274 56.4783C6.18591 53.0794 11.6381 50.2025 10.2925 46.9659C9.58485 45.2491 7.41556 44.8083 5.59429 44.495C3.77301 44.1818 1.60372 43.4046 1.29051 41.5833C1.0585 40.2029 2.13734 38.8688 3.4366 38.3236C4.73585 37.7784 6.18591 37.848 7.58957 37.9176C9.24844 37.0127 9.70085 34.797 9.41084 32.9294C9.12083 31.0617 8.274 29.31 8.07679 27.4307C7.87958 25.5515 8.55241 23.3358 10.3273 22.6745C12.9954 21.6769 15.7215 24.7974 18.5288 24.2638C20.6517 23.8694 21.8001 21.6189 22.7978 19.7048C23.7954 17.7907 25.4775 15.7027 27.612 16.0391C30.9761 16.5611 31.1733 22.1873 34.4331 23.1502C36.7648 23.8346 39.5141 21.6885 41.5442 23.0226C43.0174 23.9854 43.029 26.1315 42.6578 27.8484C42.2866 29.5652 41.7414 31.4677 42.5998 32.999C44.2703 35.9687 49.8501 35.1799 50.8361 38.4396C51.393 40.2841 49.9429 42.1285 48.3884 43.2538C46.834 44.379 44.9779 45.3187 44.1079 47.0355C42.9826 49.286 43.9803 51.9541 44.5139 54.4134C45.0475 56.8727 44.6647 60.1209 42.275 60.9213C39.3865 61.8958 36.498 58.288 33.5398 59.0652C29.8857 60.0281 29.8973 66.5475 26.1503 67.0812C20.8721 67.8352 21.5333 59.1696 17.624 57.7312C14.6659 56.6407 8.3552 61.7217 7.04435 56.4783H7.03274Z" stroke="#F99AF9" stroke-width="3.48014" stroke-miterlimit="10" stroke-linecap="round"/>
<path d="M26.1155 52.7778C31.5869 52.7778 36.0224 48.3424 36.0224 42.871C36.0224 37.3996 31.5869 32.9642 26.1155 32.9642C20.6442 32.9642 16.2087 37.3996 16.2087 42.871C16.2087 48.3424 20.6442 52.7778 26.1155 52.7778Z" stroke="#F99AF9" stroke-width="3.48014" stroke-miterlimit="10" stroke-linecap="round"/>
<path d="M65.0003 39.878C67.912 40.3537 68.3181 45.5275 71.2646 45.5623C72.819 45.5855 73.8863 44.0542 74.7331 42.755C75.58 41.4557 76.9024 40.0288 78.4105 40.4001C79.5589 40.6785 80.2317 41.9545 80.2201 43.1378C80.2085 44.321 79.6749 45.4231 79.1529 46.4787C79.3037 48.068 80.8698 49.1584 82.401 49.5528C83.9323 49.9473 85.5796 49.8776 87.0992 50.3533C88.6189 50.8289 90.1037 52.0817 90.0225 53.671C89.9065 56.0607 86.5888 57.1395 86.0668 59.4828C85.6724 61.2577 87.018 62.8818 88.1665 64.297C89.3149 65.7123 90.3706 67.696 89.3961 69.2388C87.8765 71.6633 83.4567 69.9465 81.6238 72.139C80.3129 73.705 81.0554 76.5471 79.3617 77.6724C78.1321 78.496 76.4616 77.7884 75.2551 76.93C74.0487 76.0715 72.761 75.0159 71.2878 75.1667C68.4341 75.4683 67.1928 80.0505 64.3391 79.7257C62.7266 79.5401 61.787 77.8116 61.4274 76.2223C61.0678 74.6331 60.9634 72.893 59.9193 71.6633C58.5505 70.0393 56.1608 69.9233 54.0843 69.5173C52.0078 69.1112 49.6297 67.7308 49.8037 65.6195C50.0125 63.0558 53.7595 62.0233 54.1423 59.4828C54.6179 56.3391 49.5717 54.1698 50.4069 51.0957C51.5786 46.7571 58.0516 50.1561 60.4761 47.6156C62.309 45.6899 60.4761 39.124 64.9655 39.8548L65.0003 39.878Z" stroke="#F99AF9" stroke-width="3.48014" stroke-miterlimit="10" stroke-linecap="round"/>
<path d="M69.1764 67.4988C73.7829 67.4988 77.5172 63.7645 77.5172 59.158C77.5172 54.5516 73.7829 50.8173 69.1764 50.8173C64.57 50.8173 60.8357 54.5516 60.8357 59.158C60.8357 63.7645 64.57 67.4988 69.1764 67.4988Z" stroke="#F99AF9" stroke-width="3.48014" stroke-miterlimit="10" stroke-linecap="round"/>
</g>
<defs>
<clipPath id="clip0_394_263">
<rect width="91.1101" height="80.9249" fill="white" transform="translate(0.1073 -0.00439453)"/>
</clipPath>
</defs>
</svg>
