<svg width="108" height="63" viewBox="0 0 108 63" fill="none" xmlns="http://www.w3.org/2000/svg">
<g clip-path="url(#clip0_389_1692)">
<path d="M40.4578 36.538L31.9494 30.7444C30.2981 29.4569 30.2701 28.5053 31.4176 28.1975C42.6969 25.1747 38.9745 26.826 47.5109 23.9153C50.4496 19.3252 51.0374 14.7351 53.9761 10.1451C54.8718 8.71766 56.663 7.12233 57.9785 8.18589C58.5102 8.60571 58.7062 9.3334 58.8461 10.0051L63.4082 19.745C63.6601 20.8366 64.5557 21.6202 65.6472 21.7602C70.4892 22.3199 75.3871 23.1596 80.2571 23.8313C82.2722 24.1112 82.916 26.7141 81.2367 27.8896C77.2903 30.6604 73.7358 33.9351 71.9166 38.3012C70.0414 42.7793 70.3213 47.8172 71.6647 52.5472C72.0286 53.8067 70.6291 54.8143 69.5096 54.1426L59.5738 48.0131C58.5382 47.3694 57.5027 46.7537 56.3831 46.3338C53.5003 45.2703 50.0578 45.858 47.6788 47.8172C45.6077 49.5245 40.6538 54.6184 40.6538 54.5064C41.3535 49.1047 42.9208 44.5426 42.8088 39.5887C42.7809 38.1613 40.8322 36.9362 38.4532 35.173L40.4578 36.538Z" stroke="#F9CD37" stroke-width="5.59765" stroke-miterlimit="10" stroke-linecap="round"/>
<path d="M28.451 13.9795L5.38867 5.13519" stroke="#F9CD37" stroke-width="5.59765" stroke-miterlimit="10" stroke-linecap="round"/>
<path d="M25.2043 47.7333L3.51343 56.2977" stroke="#F9CD37" stroke-width="5.59765" stroke-miterlimit="10" stroke-linecap="round"/>
<path d="M81.5447 15.9946L101.584 3.12006" stroke="#F9CD37" stroke-width="5.59765" stroke-miterlimit="10" stroke-linecap="round"/>
<path d="M84.3715 46.054C92.1242 48.9927 99.1772 53.7507 104.831 59.8242" stroke="#F9CD37" stroke-width="5.59765" stroke-miterlimit="10" stroke-linecap="round"/>
</g>
<defs>
<clipPath id="clip0_389_1692">
<rect width="106.915" height="62.2738" fill="white" transform="translate(0.7146 0.321167)"/>
</clipPath>
</defs>
</svg>
