<svg width="185" height="191" viewBox="0 0 185 191" fill="none" xmlns="http://www.w3.org/2000/svg">
<g clip-path="url(#clip0_1133_8002)">
<path d="M-9.20889 96.4907C-19.1747 92.9633 -24.1868 79.6911 -19.0831 70.4482C-15.8942 64.7277 -9.87306 61.1152 -3.72787 58.8324C9.21023 53.9901 24.266 54.0893 36.4102 60.6615C48.5544 67.2337 57.1093 80.7549 56.1739 94.5275C55.8594 99.2337 54.3829 104.084 51.0103 107.375C47.6377 110.666 42.1045 112.033 38.0446 109.629C34.3318 107.444 32.6661 102.719 33.1826 98.4621C33.6992 94.2051 36.0098 90.3239 38.7011 86.9849C48.853 74.335 65.3384 67.2691 81.5603 67.853C97.7822 68.4368 113.445 76.2953 124.18 88.4714C127.917 92.7211 131.155 97.5399 132.533 103.042C133.91 108.543 133.186 114.719 129.716 119.163C126.859 122.796 121.95 124.924 117.471 124.231C116.643 124.1 116.146 125.089 116.696 125.755C122.113 132.226 126.184 139.407 129.044 147.308C129.482 148.531 131.076 148.772 131.875 147.708C138.26 138.918 147.151 131.955 157.213 127.917" stroke="#F99AF9" stroke-width="5.82528" stroke-miterlimit="10" stroke-linecap="round"/>
</g>
<defs>
<clipPath id="clip0_1133_8002">
<rect width="70.268" height="192.251" fill="white" transform="matrix(-0.309929 0.95076 0.95076 0.309929 -10.3279 32.0457)"/>
</clipPath>
</defs>
</svg>
