<svg width="133" height="79" viewBox="0 0 133 79" fill="none" xmlns="http://www.w3.org/2000/svg">
<path d="M11.1261 13.5733C8.1467 25.9622 14.651 39.5501 26.8198 46.3808C38.9885 53.2115 56.0584 52.847 68.0244 45.5029C71.762 43.2129 75.1248 40.1464 76.3548 36.341C77.5848 32.5355 76.1702 27.9365 72.2303 25.9956C69.0093 24.4089 64.7391 24.9142 61.6574 26.7699C58.5757 28.6256 56.6156 31.6264 55.6492 34.7504C52.7692 44.0697 58.7903 54.385 68.4536 59.0298C78.117 63.6746 90.5124 63.0745 100.509 58.7578C110.505 54.441 119.682 43.4946 124.978 34.9811C124.982 34.968 124.972 34.9508 124.952 34.96C121.381 37.1349 112.862 40.9127 107.044 42.6149C106.674 42.72 106.723 43.1802 107.111 43.2097C112.995 43.6391 120.634 45.174 128.325 48.0216" stroke="#9AC3FF" stroke-width="3.65963" stroke-miterlimit="10" stroke-linecap="round"/>
</svg>
