<svg width="127" height="67" viewBox="0 0 127 67" fill="none" xmlns="http://www.w3.org/2000/svg">
<g clip-path="url(#clip0_389_1699)">
<path d="M20.4861 58.2245C13.9957 59.299 7.27438 53.5747 7.27611 47.0042C7.29361 42.9286 9.48804 39.15 12.1499 36.0586C17.7432 29.5303 25.9761 25.0576 34.5689 24.9871C43.1617 24.9165 51.8881 29.7113 55.5194 37.4965C56.763 40.1552 57.4168 43.2417 56.5688 46.0489C55.7207 48.856 53.1171 51.2646 50.1823 51.1757C47.5022 51.1009 45.1742 49.0277 44.1757 46.553C43.1772 44.0782 43.2692 41.2689 43.7316 38.6404C45.4594 28.6959 52.317 19.8894 61.331 15.3302C70.345 10.771 81.2414 10.3435 90.7515 13.7497C94.0654 14.9416 97.2783 16.5936 99.683 19.177C102.088 21.7604 103.55 25.3427 102.996 28.8074C102.532 31.646 100.496 34.2817 97.8479 35.2504C97.3572 35.4283 97.3839 36.1159 97.8836 36.3141C102.781 38.2105 107.158 40.8991 111.092 44.3443C111.698 44.879 112.639 44.5309 112.755 43.7111C113.591 37.0019 116.341 30.535 120.609 25.3098" stroke="#3586FF" stroke-width="3.62507" stroke-miterlimit="10" stroke-linecap="round"/>
</g>
<defs>
<clipPath id="clip0_389_1699">
<rect width="43.7278" height="119.638" fill="white" transform="matrix(0.188007 0.982168 0.982168 -0.188007 0.5 23.4484)"/>
</clipPath>
</defs>
</svg>
