<svg width="60" height="57" viewBox="0 0 60 57" fill="none" xmlns="http://www.w3.org/2000/svg">
<path d="M12.4636 4.38794C9.04034 4.38794 6.50718 7.38419 6.62061 10.6336C6.72959 13.7552 6.58804 17.7985 5.57022 21.0957C4.54937 24.4025 2.82263 26.4972 0.00238037 26.7662V29.8025C2.82263 30.0716 4.54937 32.1663 5.57022 35.4733C6.58804 38.7705 6.72959 42.8133 6.62061 45.9352C6.50718 49.1841 9.04034 52.1808 12.4641 52.1808H47.5409C50.9644 52.1808 53.4969 49.1846 53.3834 45.9352C53.2747 42.8136 53.416 38.7705 54.4338 35.4733C55.4554 32.1665 57.1774 30.0714 59.9977 29.8025V26.7662C57.1774 26.4972 55.4554 24.4025 54.434 21.0957C53.416 17.799 53.2747 13.7554 53.3834 10.6336C53.4969 7.38466 50.9644 4.38794 47.5409 4.38794H12.4631H12.4636ZM40.6773 33.8075C40.6773 38.2818 37.3401 40.9952 31.8018 40.9952H22.3736C22.104 40.9951 21.8454 40.8879 21.6548 40.6972C21.4641 40.5065 21.357 40.248 21.357 39.9783V16.5904C21.357 16.3207 21.4641 16.0621 21.6548 15.8713C21.8455 15.6806 22.1041 15.5734 22.3738 15.5733H31.7479C36.3659 15.5733 39.3966 18.0751 39.3966 21.9157C39.3966 24.6115 37.3577 27.0249 34.7603 27.4475V27.5883C38.2965 27.9762 40.6773 30.425 40.6773 33.8075ZM30.7734 18.7969H25.398V26.3901H29.9257C33.4256 26.3901 35.3558 24.9807 35.3558 22.4613C35.3558 20.1006 33.6958 18.7969 30.7734 18.7969ZM25.3982 29.403V37.7707H30.9717C34.6154 37.7707 36.5461 36.3085 36.5461 33.5605C36.5461 30.8119 34.5618 29.4025 30.7373 29.4025H25.3982V29.403Z" fill="#7E13F8"/>
</svg>
