<svg width="61" height="60" viewBox="0 0 61 60" fill="none" xmlns="http://www.w3.org/2000/svg">
<path d="M11.9403 50.4625L7.72906 4.0697H54.0191L49.8022 50.4551L30.8459 55.6152L11.9403 50.4625Z" fill="#1572B6"/>
<path d="M30.874 51.6721L46.1927 47.5025L49.7965 7.86401H30.874V51.6721Z" fill="#33A9DC"/>
<path d="M30.874 24.6714H38.5427L39.0715 18.8449H30.874V13.1547H45.4052L45.2665 14.6808L43.8433 30.3616H30.874V24.6714Z" fill="white"/>
<path d="M30.9096 39.4483L30.8833 39.4557L24.4296 37.7437L24.0171 33.2058H18.199L19.0109 42.1397L30.8815 45.3761L30.9096 45.3687V39.4483Z" fill="#EBEBEB"/>
<path d="M38.0495 30.1205L37.352 37.74L30.8889 39.4521V45.3724L42.7689 42.1398L42.857 41.1788L43.8639 30.1205H38.0495Z" fill="white"/>
<path d="M30.8947 13.1547V18.8449H16.8959L16.7797 17.5655L16.5153 14.6808L16.3765 13.1547H30.8947ZM30.874 24.6714V30.3616H24.5009L24.3847 29.0822L24.1222 26.1975L23.9834 24.6714H30.874Z" fill="#EBEBEB"/>
</svg>
