<svg width="58" height="57" viewBox="0 0 58 57" fill="none" xmlns="http://www.w3.org/2000/svg">
<path d="M11.1968 48.1744L7.24927 3.90149H50.6244L46.6716 48.1673L28.9105 53.0916L11.1968 48.1744Z" fill="#E44F26"/>
<path d="M28.937 49.3287L43.2899 45.3495L46.6665 7.52234H28.937V49.3287Z" fill="#F1662A"/>
<path d="M28.9367 23.9413H21.7514L21.256 18.381H28.9367V12.9508H15.3215L15.4515 14.4089L16.7849 29.3715H28.9367V23.9413ZM28.9367 38.043L28.9121 38.0501L22.8652 36.418L22.4787 32.0875H17.0274L17.7881 40.6115L28.9121 43.6999L28.9367 43.6929V38.043Z" fill="#EBEBEB"/>
<path d="M28.9174 23.9413V29.3715H35.6037L34.9748 36.4145L28.9174 38.0483V43.6981L40.0501 40.6115L40.1309 39.6944L41.4064 25.3994L41.5399 23.9413H28.9174ZM28.9174 12.9508V18.381H42.0336L42.1425 17.1618L42.3902 14.4089L42.5202 12.9508H28.9174Z" fill="white"/>
</svg>
