<svg width="72" height="91" viewBox="0 0 72 91" fill="none" xmlns="http://www.w3.org/2000/svg">
<path d="M33.0631 42.7251C29.8302 42.2637 28.0977 40.2718 28.9598 34.1158L29.0551 33.373C29.7804 28.0236 30.3856 26.8345 33.1833 26.9733C34.0039 27.022 34.9489 27.4985 35.8939 28.2112C36.7684 29.1378 38.7123 30.342 39.8107 32.7278C40.5982 34.4759 40.8634 35.6163 40.9753 36.8468L41.1494 38.3548V38.3473C41.2612 38.9437 41.6034 39.4847 42.1151 39.8738C42.6268 40.2629 43.2745 40.4748 43.9428 40.4716C44.6111 40.4685 45.2564 40.2505 45.7636 39.8566C46.2707 39.4626 46.6067 38.9184 46.7116 38.3211C46.7448 38.156 47.4411 21.9465 47.4411 21.6801C47.4411 20.2546 46.1894 19.0917 44.6227 19.0692C44.2498 19.0707 43.881 19.1386 43.5371 19.2691C43.1933 19.3996 42.8812 19.5901 42.6187 19.8298C42.3563 20.0695 42.1485 20.3536 42.0073 20.6659C41.8662 20.9782 41.7943 21.3127 41.796 21.6501C41.796 21.6839 41.7918 23.9197 41.738 26.1742C39.5164 23.9534 36.669 21.9615 33.4734 21.7852C24.9435 21.3725 24.011 28.5788 23.4473 32.7316L23.3644 33.4668C22.2122 41.6785 25.1922 46.8553 32.1927 47.8607C39.8107 48.9598 44.8879 50.5617 44.9335 54.8682C44.9625 56.5413 44.0051 58.2556 42.3348 59.5724C41.3524 60.348 40.1946 60.92 38.9425 61.2485C37.6904 61.577 36.3741 61.6541 35.0857 61.4743C34.3245 61.3611 33.5766 61.184 32.8517 60.9453C31.8569 60.4352 29.3411 59.0322 28.0687 57.4116C26.991 56.0461 26.618 53.8966 26.502 52.5349C26.5185 51.9234 26.5227 51.522 26.5227 51.4732C26.5372 50.7918 26.2542 50.1326 25.7351 49.6389C25.2159 49.1452 24.5026 48.8567 23.7499 48.836C22.9928 48.83 22.264 49.096 21.7232 49.5756C21.1825 50.0552 20.8739 50.7093 20.8651 51.3945C20.8651 51.4432 20.7947 56.5225 20.5916 59.5836C20.3015 64.5091 20.5916 68.6843 20.5916 68.8644C20.7076 70.2974 22.0422 71.3778 23.6048 71.2803C23.9782 71.2589 24.3432 71.1705 24.6784 71.0202C25.0137 70.8699 25.3125 70.6606 25.5575 70.4047C25.8025 70.1487 25.9887 69.8512 26.1053 69.5294C26.222 69.2077 26.2666 68.8681 26.2367 68.5305C26.2367 68.508 26.0999 66.4861 26.1165 63.6913C28.55 65.1392 31.2825 66.1256 34.149 66.5911C36.2506 66.909 38.4042 66.7978 40.4523 66.2656C42.5003 65.7334 44.3911 64.7936 45.9863 63.515C48.9415 61.1929 50.6367 58.0231 50.5869 54.8119C50.4875 45.2273 38.7123 43.5429 33.0631 42.7251ZM44.5356 0.290039C40.5758 0.291246 36.6847 1.22601 33.2454 3.00225H32.7812C21.8516 3.00225 12.3187 8.22411 7.29118 16.9872C4.27382 22.2128 3.56093 27.3034 3.1506 30.4132C3.10086 30.7471 3.07599 31.051 3.03455 31.3961C2.53718 35.0499 2.52475 38.5386 2.9931 41.7948C1.34597 44.7385 0.460143 47.9827 0.402651 51.2819V51.3419C0.368449 53.7813 0.289689 56.22 0.166402 58.657C-0.0437939 62.3306 -0.0548603 66.0114 0.133244 69.686L0.187125 70.47C1.11554 81.6039 11.3157 90.322 23.4349 90.322C28.6522 90.3402 33.7185 88.738 37.788 85.7829C45.7425 85.4979 53.346 82.7425 59.3199 77.9801C66.8881 72.0268 71.1696 63.5563 71.0494 54.7594C70.9955 49.6501 69.6153 44.8634 66.9959 40.6431C67.4808 35.8677 67.9119 21.9015 67.9119 21.7739C67.9119 10.1335 57.6164 0.503865 44.9543 0.290039L44.5356 0.290039ZM44.7677 10.3249C51.5734 10.4374 57.1107 15.6217 57.1107 21.8827C57.1107 22.0253 56.5097 38.7525 56.2196 40.2005C56.0475 41.0892 55.7653 41.9574 55.3782 42.7889C58.5116 46.1276 60.2068 50.2916 60.2483 55.0032C60.3353 60.8366 57.4257 66.5423 52.2655 70.6088C47.9174 74.0869 42.3185 76.0125 36.5156 76.0257C35.5205 76.0196 34.5268 75.9595 33.5397 75.8456C33.3158 76.1242 33.0779 76.3934 32.8268 76.6522C31.6674 77.8774 30.2279 78.8601 28.6077 79.5324C26.9876 80.2047 25.2255 80.5506 23.4432 80.5461C16.9235 80.5461 11.4359 75.8381 10.9551 69.8323L10.922 69.3746C10.7474 66.0476 10.7544 62.7149 10.9427 59.3885C11.1043 56.8414 11.1914 52.5199 11.1996 51.5858C11.2417 48.7836 12.3933 46.0882 14.445 43.9893C13.4627 40.857 13.1518 37.1019 13.7528 32.6603L13.8523 31.865C14.1963 29.2578 14.7144 25.4127 16.8365 21.7364C20.0072 16.2107 25.8222 13.0408 32.7854 13.0408C33.9302 13.0354 35.0732 13.1233 36.2006 13.3034C38.4636 11.4277 41.4644 10.2648 44.7677 10.3249Z" fill="#F7C005" fill-opacity="0.62"/>
</svg>
