<svg width="127" height="134" viewBox="0 0 127 134" fill="none" xmlns="http://www.w3.org/2000/svg">
<g clip-path="url(#clip0_736_3611)">
<path d="M32.4406 0.323242C26.3146 0.323242 21.7814 5.68513 21.9844 11.5C22.1794 17.0862 21.9261 24.3219 20.1047 30.2223C18.2779 36.1399 15.1878 39.8884 10.1409 40.3698V45.8034C15.1878 46.2849 18.2779 50.0334 20.1047 55.9514C21.9261 61.8518 22.1794 69.0866 21.9844 74.6733C21.7814 80.4873 26.3146 85.85 32.4414 85.85H95.2126C101.339 85.85 105.871 80.4882 105.668 74.6733C105.473 69.0871 105.726 61.8518 107.548 55.9514C109.376 50.0338 112.457 46.2845 117.504 45.8034V40.3698C112.457 39.8884 109.376 36.1399 107.548 30.2223C105.726 24.3228 105.473 17.0866 105.668 11.5C105.871 5.68597 101.339 0.323242 95.2126 0.323242H32.4398H32.4406ZM82.93 52.9704C82.93 60.9773 76.9579 65.833 67.0469 65.833H50.1749C49.6924 65.8328 49.2297 65.641 48.8885 65.2998C48.5474 64.9585 48.3557 64.4958 48.3556 64.0133V22.16C48.3556 21.6773 48.5473 21.2144 48.8885 20.8731C49.2298 20.5318 49.6926 20.3399 50.1753 20.3398H66.9504C75.2145 20.3398 80.638 24.8168 80.638 31.6898C80.638 36.514 76.9893 40.8328 72.3413 41.589V41.8411C78.6694 42.5351 82.93 46.9173 82.93 52.9704ZM65.2066 26.1085H55.5871V39.6967H63.6897C69.9528 39.6967 73.4069 37.1745 73.4069 32.6661C73.4069 28.4416 70.4364 26.1085 65.2066 26.1085ZM55.5875 45.0884V60.0627H65.5614C72.0821 60.0627 75.537 57.4461 75.537 52.5283C75.537 47.6097 71.986 45.0875 65.142 45.0875H55.5875V45.0884Z" fill="#7E13F8"/>
</g>
<path d="M14.9633 116.315C16.0331 116.417 16.9076 116.841 17.5869 117.588C18.2831 118.319 18.6312 119.286 18.6312 120.492C18.6312 122.02 18.1218 123.226 17.1029 124.109C16.0841 124.992 14.6917 125.433 12.9257 125.433H5.30983V107.604H12.6455C14.4115 107.604 15.8039 108.02 16.8227 108.852C17.8586 109.667 18.3765 110.796 18.3765 112.239C18.3765 113.377 18.0708 114.294 17.4595 114.99C16.8482 115.67 16.0162 116.111 14.9633 116.315ZM11.7285 110.584H9.43614V114.914H11.7285C12.5096 114.914 13.1209 114.727 13.5624 114.354C14.0209 113.963 14.2502 113.428 14.2502 112.749C14.2502 112.07 14.0294 111.543 13.5879 111.17C13.1464 110.779 12.5266 110.584 11.7285 110.584ZM12.0087 122.301C12.7728 122.301 13.3757 122.097 13.8172 121.689C14.2587 121.265 14.4794 120.687 14.4794 119.957C14.4794 119.295 14.2502 118.769 13.7917 118.378C13.3502 117.97 12.7559 117.767 12.0087 117.767H9.43614V122.301H12.0087ZM31.9264 123.982C30.7038 125.204 29.0567 125.816 26.9851 125.816C24.9134 125.816 23.2578 125.204 22.0182 123.982C20.7786 122.759 20.1588 121.197 20.1588 119.295C20.1588 117.393 20.7786 115.839 22.0182 114.634C23.2578 113.411 24.9134 112.8 26.9851 112.8C29.0567 112.8 30.7038 113.411 31.9264 114.634C33.166 115.839 33.7858 117.393 33.7858 119.295C33.7858 121.197 33.166 122.759 31.9264 123.982ZM26.9851 122.504C27.885 122.504 28.5982 122.207 29.1246 121.613C29.651 121.018 29.9142 120.246 29.9142 119.295C29.9142 118.344 29.651 117.571 29.1246 116.977C28.5982 116.383 27.885 116.086 26.9851 116.086C26.0681 116.086 25.3464 116.383 24.82 116.977C24.3106 117.571 24.0559 118.344 24.0559 119.295C24.0559 120.246 24.3106 121.018 24.82 121.613C25.3464 122.207 26.0681 122.504 26.9851 122.504ZM47.2489 123.982C46.0262 125.204 44.3791 125.816 42.3075 125.816C40.2358 125.816 38.5802 125.204 37.3406 123.982C36.101 122.759 35.4812 121.197 35.4812 119.295C35.4812 117.393 36.101 115.839 37.3406 114.634C38.5802 113.411 40.2358 112.8 42.3075 112.8C44.3791 112.8 46.0262 113.411 47.2489 114.634C48.4884 115.839 49.1082 117.393 49.1082 119.295C49.1082 121.197 48.4884 122.759 47.2489 123.982ZM42.3075 122.504C43.2075 122.504 43.9206 122.207 44.447 121.613C44.9734 121.018 45.2366 120.246 45.2366 119.295C45.2366 118.344 44.9734 117.571 44.447 116.977C43.9206 116.383 43.2075 116.086 42.3075 116.086C41.3905 116.086 40.6688 116.383 40.1424 116.977C39.633 117.571 39.3783 118.344 39.3783 119.295C39.3783 120.246 39.633 121.018 40.1424 121.613C40.6688 122.207 41.3905 122.504 42.3075 122.504ZM57.7431 122.402C58.2865 122.402 58.7365 122.377 59.0931 122.326V125.433C58.3459 125.569 57.4799 125.637 56.495 125.637C56.0535 125.637 55.663 125.612 55.3234 125.561C54.9838 125.51 54.6017 125.4 54.1772 125.23C53.7527 125.043 53.4045 124.797 53.1329 124.491C52.8612 124.185 52.6234 123.744 52.4197 123.167C52.2329 122.589 52.1395 121.91 52.1395 121.129V116.238H50.2037V113.156H52.1395V109.514H56.0366V113.156H58.8129V116.238H56.0366V120.314C56.0366 121.146 56.1809 121.706 56.4696 121.995C56.7582 122.267 57.1828 122.402 57.7431 122.402ZM66.1645 125.816C64.3985 125.816 62.9891 125.433 61.9363 124.669C60.8835 123.905 60.3571 122.929 60.3571 121.74H64.2287C64.2287 122.165 64.4155 122.513 64.789 122.784C65.1626 123.056 65.6466 123.192 66.2409 123.192C66.6654 123.192 67.005 123.09 67.2597 122.886C67.5314 122.683 67.6673 122.402 67.6673 122.046C67.6673 121.485 67.3701 121.137 66.7758 121.002L63.7702 120.237C62.7683 119.983 62.0042 119.55 61.4778 118.938C60.9514 118.327 60.6882 117.58 60.6882 116.697C60.6882 115.542 61.1637 114.608 62.1146 113.895C63.0655 113.165 64.339 112.8 65.9352 112.8C67.7012 112.8 69.0512 113.139 69.9851 113.819C70.936 114.498 71.4115 115.432 71.4115 116.62H67.5654C67.5654 116.196 67.4125 115.865 67.1069 115.627C66.8182 115.389 66.4107 115.271 65.8843 115.271C65.4598 115.271 65.1202 115.364 64.8654 115.551C64.6107 115.738 64.4834 115.984 64.4834 116.289C64.4834 116.833 64.8315 117.198 65.5277 117.385L68.4314 118.174C69.3993 118.429 70.1549 118.853 70.6983 119.448C71.2587 120.025 71.5389 120.738 71.5389 121.587C71.5389 122.861 71.0549 123.888 70.087 124.669C69.1361 125.433 67.8286 125.816 66.1645 125.816ZM80.2292 122.402C80.7726 122.402 81.2226 122.377 81.5792 122.326V125.433C80.8321 125.569 79.966 125.637 78.9812 125.637C78.5397 125.637 78.1491 125.612 77.8095 125.561C77.4699 125.51 77.0878 125.4 76.6633 125.23C76.2388 125.043 75.8907 124.797 75.619 124.491C75.3473 124.185 75.1096 123.744 74.9058 123.167C74.719 122.589 74.6256 121.91 74.6256 121.129V116.238H72.6898V113.156H74.6256V109.514H78.5227V113.156H81.299V116.238H78.5227V120.314C78.5227 121.146 78.667 121.706 78.9557 121.995C79.2444 122.267 79.6689 122.402 80.2292 122.402ZM83.8093 125.433V113.156H87.7064V115.729C87.9102 114.846 88.3262 114.167 88.9545 113.691C89.5997 113.199 90.3129 112.953 91.094 112.953C91.5016 112.953 91.8412 112.987 92.1129 113.055V116.671C91.6544 116.621 91.2638 116.595 90.9412 116.595C88.7847 116.595 87.7064 117.962 87.7064 120.696V125.433H83.8093ZM98.7737 125.765C96.9908 125.765 95.5814 125.162 94.5455 123.956C93.5097 122.751 92.9918 121.197 92.9918 119.295C92.9918 117.427 93.5267 115.882 94.5965 114.659C95.6663 113.437 97.0757 112.825 98.8247 112.825C99.6907 112.825 100.463 113.012 101.143 113.386C101.822 113.759 102.331 114.269 102.671 114.914V113.156H106.542V125.433H102.671V123.701C102.331 124.313 101.805 124.814 101.092 125.204C100.395 125.578 99.6228 125.765 98.7737 125.765ZM99.8945 122.53C100.828 122.53 101.55 122.224 102.059 121.613C102.569 121.002 102.824 120.229 102.824 119.295C102.824 118.378 102.569 117.614 102.059 117.003C101.55 116.391 100.828 116.086 99.8945 116.086C99.0115 116.086 98.2983 116.383 97.7549 116.977C97.2285 117.571 96.9653 118.344 96.9653 119.295C96.9653 120.246 97.2285 121.027 97.7549 121.638C98.2983 122.233 99.0115 122.53 99.8945 122.53ZM117.674 112.825C119.355 112.825 120.713 113.42 121.749 114.608C122.802 115.797 123.328 117.359 123.328 119.295C123.328 121.214 122.794 122.776 121.724 123.982C120.654 125.17 119.27 125.765 117.572 125.765C116.689 125.765 115.899 125.569 115.203 125.179C114.507 124.788 113.998 124.296 113.675 123.701V130.528H109.778V113.156H113.675V114.914C113.998 114.303 114.524 113.802 115.254 113.411C115.984 113.021 116.791 112.825 117.674 112.825ZM116.451 122.53C117.3 122.53 117.996 122.233 118.54 121.638C119.083 121.027 119.355 120.246 119.355 119.295C119.355 118.344 119.083 117.571 118.54 116.977C117.996 116.383 117.3 116.086 116.451 116.086C115.568 116.086 114.855 116.383 114.312 116.977C113.768 117.571 113.497 118.344 113.497 119.295C113.497 120.263 113.768 121.044 114.312 121.638C114.872 122.233 115.585 122.53 116.451 122.53Z" fill="black"/>
<defs>
<clipPath id="clip0_736_3611">
<rect width="107.372" height="85.5553" fill="white" transform="translate(10.1367 0.323242)"/>
</clipPath>
</defs>
</svg>
