<svg width="1331" height="847" viewBox="0 0 1331 847" fill="none" xmlns="http://www.w3.org/2000/svg">
<path d="M95.5005 0V847.006" stroke="#E6F0FF"/>
<path d="M190.5 0V847.006" stroke="#E6F0FF"/>
<path d="M285.5 0V847.006" stroke="#E6F0FF"/>
<path d="M380.5 0V847.006" stroke="#E6F0FF"/>
<path d="M475.5 0V847.006" stroke="#E6F0FF"/>
<path d="M570.5 0V847.006" stroke="#E6F0FF"/>
<path d="M665.5 0V847.006" stroke="#E6F0FF"/>
<path d="M760.5 0V847.006" stroke="#E6F0FF"/>
<path d="M855.5 0V847.006" stroke="#E6F0FF"/>
<path d="M950.5 0V847.006" stroke="#E6F0FF"/>
<path d="M1045.5 0V847.006" stroke="#E6F0FF"/>
<path d="M1140.5 0V847.006" stroke="#E6F0FF"/>
<path d="M1235.5 0V847.006" stroke="#E6F0FF"/>
<path d="M0 566.522L1331 566.522" stroke="#E6F0FF"/>
<path d="M0 754.264L1331 754.264" stroke="#E6F0FF"/>
<path d="M0 471.522L1331 471.522" stroke="#E6F0FF"/>
<path d="M0 659.264L1331 659.264" stroke="#E6F0FF"/>
<path d="M0 376.522L1331 376.522" stroke="#E6F0FF"/>
<path d="M0 281.522L1331 281.522" stroke="#E6F0FF"/>
<path d="M0 186.522L1331 186.522" stroke="#E6F0FF"/>
<path d="M0 91.5223L1331 91.5223" stroke="#E6F0FF"/>
</svg>
