<svg width="53" height="83" viewBox="0 0 53 83" fill="none" xmlns="http://www.w3.org/2000/svg">
<path d="M41.2544 18.2925H34.3476C33.7953 18.2925 33.3475 18.8326 33.3475 19.4989V30.3408C33.3475 31.0071 33.7953 31.5473 34.3476 31.5473H41.2544C41.8067 31.5473 42.2545 31.0071 42.2545 30.3408V19.4989C42.2545 18.8326 41.8067 18.2925 41.2544 18.2925Z" stroke="#00B894" stroke-width="2.44666" stroke-miterlimit="10"/>
<path d="M10.9736 22.33H26.1741" stroke="#00B894" stroke-width="2.44666" stroke-miterlimit="10" stroke-linecap="round"/>
<path d="M10.9736 27.5418H25.174" stroke="#00B894" stroke-width="2.44666" stroke-miterlimit="10" stroke-linecap="round"/>
<path d="M10.9736 57.9604H40.0011" stroke="#00B894" stroke-width="2.44666" stroke-miterlimit="10" stroke-linecap="round"/>
<path d="M10.9736 51.6707H36.8011" stroke="#00B894" stroke-width="2.44666" stroke-miterlimit="10" stroke-linecap="round"/>
<path d="M10.9736 63.9282H41.1212" stroke="#00B894" stroke-width="2.44666" stroke-miterlimit="10" stroke-linecap="round"/>
<path d="M1.66663 8.4479L2.53332 76.5719C2.57332 79.2904 4.69338 81.3494 7.06678 80.9633C20.2538 78.7917 33.6809 78.5665 46.9213 80.2877C49.2147 80.5934 51.2547 78.5826 51.3347 75.9606C52.0014 52.6038 51.6681 29.1988 50.2947 5.87415C50.148 3.42909 48.3213 1.56312 46.1746 1.65963C32.8275 2.25481 18.8538 3.28431 5.4934 3.87949C3.33334 3.97601 1.63996 6.00284 1.67996 8.4479H1.66663Z" stroke="#00B894" stroke-width="2.44666" stroke-miterlimit="10"/>
</svg>
