<svg width="39" height="50" viewBox="0 0 39 50" fill="none" xmlns="http://www.w3.org/2000/svg">
<path d="M4.69133 2.49362L35.4743 24.5259C35.7373 24.7165 35.9429 24.9779 36.0676 25.2808C36.1924 25.5836 36.2315 25.9159 36.1805 26.2401C36.1295 26.5644 35.9905 26.8677 35.779 27.1159C35.5675 27.3641 35.2921 27.5474 34.9837 27.6451L23.4194 29.8763C23.2148 29.9369 23.0263 30.0438 22.868 30.1888C22.7098 30.3339 22.5858 30.5134 22.5054 30.7141C22.425 30.9147 22.3903 31.1312 22.4038 31.3474C22.4173 31.5635 22.4787 31.7738 22.5834 31.9625L28.3655 43.0982C28.4967 43.297 28.5867 43.5207 28.63 43.7559C28.6734 43.9912 28.6692 44.2329 28.6176 44.4664C28.5661 44.6999 28.4684 44.9203 28.3304 45.1141C28.1923 45.308 28.0169 45.4713 27.8148 45.594L23.6522 47.7973C23.2458 48.0145 22.7712 48.0591 22.3325 47.9213C21.8938 47.7835 21.5267 47.4745 21.3118 47.062L15.5297 35.9008C15.4421 35.7012 15.3118 35.5239 15.1482 35.382C14.9847 35.2401 14.792 35.1371 14.5843 35.0805C14.3765 35.024 14.159 35.0153 13.9475 35.0551C13.7361 35.0949 13.536 35.1822 13.362 35.3106L4.89408 43.5969C4.63903 43.8314 4.32109 43.9834 3.98076 44.0335C3.64042 44.0837 3.2931 44.0298 2.98303 43.8786C2.67295 43.7274 2.41417 43.4859 2.23964 43.1847C2.06511 42.8835 1.98274 42.5364 2.00301 42.1874V3.99212C1.99838 3.6717 2.07976 3.35606 2.23839 3.07912C2.39702 2.80218 2.62692 2.57443 2.90336 2.42034C3.1798 2.26624 3.49233 2.19165 3.80736 2.20456C4.12238 2.21747 4.42799 2.3174 4.69133 2.49362Z" fill="white" stroke="#3586FF" stroke-width="3.7128" stroke-linecap="round" stroke-linejoin="round"/>
</svg>
