<svg width="92" height="54" viewBox="0 0 92 54" fill="none" xmlns="http://www.w3.org/2000/svg">
<g clip-path="url(#clip0_1151_5847)">
<path d="M34.2312 31.1658L26.9742 26.2243C25.5657 25.1262 25.5419 24.3146 26.5206 24.052C36.1409 21.4738 32.966 22.8823 40.2469 20.3996C42.7534 16.4846 43.2547 12.5697 45.7612 8.6547C46.5251 7.43724 48.0529 6.07655 49.1749 6.98368C49.6285 7.34175 49.7956 7.96242 49.9149 8.53534L53.806 16.8427C54.0209 17.7737 54.7848 18.4421 55.7158 18.5615C59.8456 19.0389 64.0231 19.7551 68.1768 20.328C69.8956 20.5667 70.4446 22.7868 69.0123 23.7894C65.6464 26.1527 62.6147 28.9457 61.063 32.6697C59.4636 36.4892 59.7023 40.7861 60.8482 44.8204C61.1585 45.8946 59.9649 46.754 59.0101 46.1811L50.5356 40.9532C49.6523 40.4041 48.7691 39.8789 47.8142 39.5209C45.3554 38.6137 42.4192 39.115 40.3901 40.7861C38.6236 42.2422 34.3983 46.5869 34.3983 46.4914C34.9951 41.8842 36.3319 37.9931 36.2364 33.7678C36.2125 32.5503 34.5505 31.5054 32.5214 30.0015L34.2312 31.1658Z" stroke="#F9CD37" stroke-width="4.77435" stroke-miterlimit="10" stroke-linecap="round"/>
<path d="M23.9903 11.9252L4.32001 4.3817" stroke="#F9CD37" stroke-width="4.77435" stroke-miterlimit="10" stroke-linecap="round"/>
<path d="M21.2211 40.7145L2.72052 48.0192" stroke="#F9CD37" stroke-width="4.77435" stroke-miterlimit="10" stroke-linecap="round"/>
<path d="M69.2749 13.6439L86.3671 2.66292" stroke="#F9CD37" stroke-width="4.77435" stroke-miterlimit="10" stroke-linecap="round"/>
<path d="M71.686 39.2822C78.2985 41.7887 84.3142 45.8469 89.1363 51.0271" stroke="#F9CD37" stroke-width="4.77435" stroke-miterlimit="10" stroke-linecap="round"/>
</g>
<defs>
<clipPath id="clip0_1151_5847">
<rect width="91.1901" height="53.1146" fill="white" transform="translate(0.333313 0.275696)"/>
</clipPath>
</defs>
</svg>
