<svg width="79" height="70" viewBox="0 0 79 70" fill="none" xmlns="http://www.w3.org/2000/svg">
<g clip-path="url(#clip0_1151_5859)">
<path d="M6.57343 48.5083C5.85114 45.6093 10.5015 43.1555 9.35372 40.395C8.75017 38.9306 6.89994 38.5547 5.34654 38.2875C3.79313 38.0204 1.9429 37.3574 1.67575 35.804C1.47787 34.6266 2.39804 33.4888 3.5062 33.0238C4.61436 32.5587 5.85114 32.6181 7.04835 32.6775C8.46324 31.9057 8.84911 30.0159 8.60176 28.4229C8.3544 26.8299 7.63212 25.3359 7.46391 23.733C7.29571 22.1301 7.86958 20.2403 9.38341 19.6764C11.6591 18.8254 13.9843 21.487 16.3787 21.0319C18.1893 20.6955 19.1689 18.776 20.0198 17.1434C20.8707 15.5109 22.3053 13.7299 24.1259 14.0168C26.9952 14.4621 27.1634 19.2608 29.9437 20.082C31.9325 20.6658 34.2774 18.8353 36.0089 19.9732C37.2655 20.7944 37.2754 22.6249 36.9588 24.0892C36.6422 25.5536 36.1771 27.1762 36.9093 28.4823C38.3341 31.0152 43.0933 30.3424 43.9343 33.1227C44.4092 34.6959 43.1724 36.2691 41.8466 37.2288C40.5207 38.1886 38.9377 38.99 38.1956 40.4544C37.2358 42.3739 38.0867 44.6495 38.5419 46.7471C38.997 48.8447 38.6705 51.6151 36.6323 52.2978C34.1686 53.1289 31.7049 50.0518 29.1819 50.7147C26.0652 51.536 26.0751 57.0966 22.8792 57.5517C18.3773 58.1948 18.9413 50.8038 15.6069 49.5769C13.0839 48.6468 7.70138 52.9805 6.58332 48.5083H6.57343Z" stroke="#3586FF" stroke-width="2.96829" stroke-miterlimit="10" stroke-linecap="round"/>
<path d="M22.8496 45.352C27.5163 45.352 31.2993 41.569 31.2993 36.9023C31.2993 32.2357 27.5163 28.4526 22.8496 28.4526C18.183 28.4526 14.3999 32.2357 14.3999 36.9023C14.3999 41.569 18.183 45.352 22.8496 45.352Z" stroke="#3586FF" stroke-width="2.96829" stroke-miterlimit="10" stroke-linecap="round"/>
<path d="M56.0152 34.3496C58.4987 34.7553 58.845 39.1681 61.3581 39.1978C62.684 39.2176 63.5943 37.9115 64.3165 36.8034C65.0388 35.6952 66.1668 34.4782 67.453 34.7948C68.4326 35.0323 69.0064 36.1207 68.9965 37.1299C68.9866 38.1391 68.5315 39.0791 68.0863 39.9794C68.2149 41.335 69.5506 42.265 70.8567 42.6014C72.1627 42.9378 73.5677 42.8785 74.8638 43.2841C76.16 43.6898 77.4265 44.7584 77.3572 46.1139C77.2583 48.1521 74.4285 49.0723 73.9833 51.0709C73.6469 52.5848 74.7946 53.97 75.7741 55.1771C76.7537 56.3842 77.654 58.0761 76.8229 59.392C75.5268 61.4599 71.757 59.9956 70.1937 61.8656C69.0757 63.2013 69.7089 65.6254 68.2644 66.5852C67.2156 67.2877 65.7908 66.6841 64.7618 65.9519C63.7328 65.2198 62.6345 64.3194 61.3779 64.448C58.9439 64.7053 57.8852 68.6135 55.4513 68.3365C54.0759 68.1782 53.2745 66.7039 52.9678 65.3484C52.6611 63.9929 52.572 62.5087 51.6815 61.4599C50.514 60.0747 48.4758 59.9758 46.7047 59.6295C44.9336 59.2832 42.9053 58.1058 43.0537 56.305C43.2318 54.1184 46.4277 53.2378 46.7542 51.0709C47.1598 48.3896 42.8558 46.5394 43.5682 43.9174C44.5675 40.2169 50.0885 43.1159 52.1565 40.9491C53.7198 39.3066 52.1565 33.7065 55.9855 34.3298L56.0152 34.3496Z" stroke="#3586FF" stroke-width="2.96829" stroke-miterlimit="10" stroke-linecap="round"/>
<path d="M59.5771 57.9079C63.5061 57.9079 66.6911 54.7228 66.6911 50.7939C66.6911 46.8649 63.5061 43.6799 59.5771 43.6799C55.6482 43.6799 52.4631 46.8649 52.4631 50.7939C52.4631 54.7228 55.6482 57.9079 59.5771 57.9079Z" stroke="#3586FF" stroke-width="2.96829" stroke-miterlimit="10" stroke-linecap="round"/>
</g>
<defs>
<clipPath id="clip0_1151_5859">
<rect width="77.7097" height="69.0226" fill="white" transform="translate(0.666626 0.333008)"/>
</clipPath>
</defs>
</svg>
