<svg width="89" height="67" viewBox="0 0 89 67" fill="none" xmlns="http://www.w3.org/2000/svg">
<path d="M54.4472 43.1604C55.3137 41.608 55.5704 39.8466 56.2443 38.2345C56.9182 36.6224 58.2981 35.0401 60.1593 34.8908C62.0527 34.7415 63.8177 36.2044 64.3311 37.9061C64.8446 39.6078 64.3311 41.4587 63.561 43.0708C62.3415 45.5189 60.2556 47.7281 57.4637 48.5341C55.2495 49.1611 50.5001 48.5341 50.3396 45.8771C52.1367 45.6383 53.6128 44.7128 54.4472 43.1902V43.1604Z" stroke="#F99AF9" stroke-width="3" stroke-miterlimit="10" stroke-linecap="round"/>
<path d="M71.1987 10.2015C71.8405 8.29086 72.4823 6.3802 73.766 4.76808C75.0496 3.15597 77.0071 1.93195 79.1572 1.99166C81.9812 2.08122 84.2596 4.4994 84.8052 7.0967C85.3507 9.694 84.5484 12.351 83.4894 14.7692C80.4408 21.7252 75.3063 27.6661 69.8509 33.0996C68.6956 34.234 64.9731 37.6971 63.7858 34.7416C63.3365 33.637 64.9731 30.3829 65.294 29.2186C65.8717 27.2482 66.4493 25.2778 67.059 23.3074C68.4068 18.9189 69.7867 14.5602 71.2308 10.2015H71.1987Z" stroke="#F99AF9" stroke-width="3" stroke-miterlimit="10" stroke-linecap="round"/>
<path d="M51.4307 47.4594C52.2329 47.728 52.6822 48.4147 52.3934 48.9819C51.9441 49.8477 50.3396 50.1164 48.9918 50.2656L32.7218 51.9076C31.5344 52.027 31.0531 52.9824 31.9516 53.5496C33.0748 54.2661 34.1017 55.0721 35.0002 55.908C36.5406 57.341 35.4816 59.3711 32.9143 59.8488C28.5179 60.6847 23.7043 60.6847 19.0833 60.834C12.8256 61.0429 6.08653 61.7594 1.78638 64.7747" stroke="#F99AF9" stroke-width="3" stroke-miterlimit="10" stroke-linecap="round"/>
<path d="M45.727 13.658C49.1533 14.8742 51.6779 17.81 53.3009 21.5846C53.5713 22.2137 54.3377 22.0879 54.473 21.4169C55.0591 18.1875 57.0427 15.1259 59.387 13.1547C59.7476 12.8192 59.7476 12.19 59.387 11.8965C56.5919 9.8414 52.264 0.446806 51.8582 2.20829C50.5508 8.20573 47.5303 10.4705 45.5467 12.3578C45.141 12.7353 45.2762 13.4902 45.727 13.658Z" stroke="#F99AF9" stroke-width="3" stroke-miterlimit="10" stroke-linecap="round"/>
<path d="M79.7923 46.6571C81.968 47.8266 81.7748 48.33 83.1769 50.2641C83.4186 50.5789 83.9021 50.534 83.9988 50.1741C84.5306 48.2401 85.7393 46.1711 87.3348 44.9567C87.7699 44.6418 87.8183 44.0121 87.4315 43.6073C85.3525 41.6283 84.9658 39.6492 83.2252 37.8051C82.7417 37.3103 81.8715 37.4003 81.5814 37.985C81.0496 39.0195 80.7111 40.2789 80.131 41.2235C79.4057 42.3479 78.5355 43.4274 77.5685 44.3719C77.1817 44.7318 77.2784 45.2715 77.7619 45.5414L79.7923 46.6571Z" stroke="#F99AF9" stroke-width="2.5" stroke-miterlimit="10" stroke-linecap="round"/>
</svg>
