<svg width="82" height="74" viewBox="0 0 82 74" fill="none" xmlns="http://www.w3.org/2000/svg">
<g clip-path="url(#clip0_399_1256)">
<path d="M6.21027 51.3658C5.45089 48.3178 10.34 45.738 9.13336 42.8357C8.49881 41.2962 6.55355 40.9009 4.92036 40.62C3.28718 40.3391 1.34192 39.6422 1.06105 38.009C0.853001 36.7711 1.82043 35.5748 2.98551 35.0859C4.15058 34.597 5.45089 34.6594 6.70959 34.7218C8.19714 33.9104 8.60283 31.9236 8.34277 30.2488C8.08271 28.574 7.32333 27.0032 7.14649 25.318C6.96965 23.6328 7.57299 21.6459 9.16457 21.053C11.5571 20.1584 14.0017 22.9566 16.5191 22.4781C18.4228 22.1244 19.4526 20.1064 20.3472 18.39C21.2418 16.6735 22.7502 14.8011 24.6642 15.1028C27.6809 15.5709 27.8578 20.6161 30.7809 21.4795C32.8718 22.0932 35.3372 20.1688 37.1576 21.3651C38.4787 22.2285 38.4891 24.1529 38.1562 25.6925C37.8233 27.232 37.3344 28.938 38.1042 30.3112C39.6022 32.9742 44.6058 32.2668 45.49 35.1899C45.9893 36.8439 44.689 38.4979 43.295 39.5069C41.9011 40.516 40.2367 41.3586 39.4565 42.8981C38.4475 44.9162 39.3421 47.3088 39.8206 49.5141C40.2991 51.7194 39.9559 54.6321 37.8129 55.3499C35.2227 56.2237 32.6325 52.9885 29.9799 53.6855C26.7031 54.5489 26.7135 60.3951 23.3535 60.8736C18.6204 61.5498 19.2133 53.7791 15.7077 52.4892C13.0551 51.5114 7.39615 56.0677 6.22067 51.3658H6.21027Z" stroke="#F9CD37" stroke-width="3.12074" stroke-miterlimit="10" stroke-linecap="round"/>
<path d="M23.3222 48.0474C28.2285 48.0474 32.2059 44.07 32.2059 39.1637C32.2059 34.2573 28.2285 30.28 23.3222 30.28C18.4158 30.28 14.4385 34.2573 14.4385 39.1637C14.4385 44.07 18.4158 48.0474 23.3222 48.0474Z" stroke="#F9CD37" stroke-width="3.12074" stroke-miterlimit="10" stroke-linecap="round"/>
<path d="M58.1912 36.4799C60.8022 36.9064 61.1663 41.5459 63.8085 41.5771C65.2025 41.5979 66.1595 40.2247 66.9189 39.0597C67.6783 37.8946 68.8641 36.6151 70.2165 36.948C71.2463 37.1976 71.8496 38.3419 71.8392 39.4029C71.8288 40.464 71.3503 41.4522 70.8822 42.3989C71.0174 43.824 72.4218 44.8018 73.7949 45.1555C75.168 45.5092 76.6452 45.4468 78.0079 45.8733C79.3706 46.2998 80.7021 47.4232 80.6293 48.8484C80.5253 50.9913 77.5502 51.9587 77.0821 54.06C76.7284 55.6516 77.9351 57.1079 78.9649 58.377C79.9948 59.6461 80.9414 61.425 80.0676 62.8085C78.7049 64.9826 74.7415 63.443 73.0979 65.4091C71.9225 66.8134 72.5882 69.362 71.0695 70.3711C69.9668 71.1096 68.4688 70.4751 67.387 69.7053C66.3051 68.9355 65.1505 67.9889 63.8294 68.1241C61.2703 68.3946 60.1573 72.5036 57.5983 72.2123C56.1523 72.0459 55.3097 70.4959 54.9873 69.0708C54.6648 67.6456 54.5712 66.0853 53.6349 64.9826C52.4074 63.5262 50.2645 63.4222 48.4025 63.0581C46.5405 62.6941 44.408 61.4562 44.564 59.5629C44.7512 57.264 48.1112 56.3381 48.4545 54.06C48.881 51.2409 44.3559 49.2957 45.1049 46.539C46.1556 42.6485 51.9601 45.6964 54.1343 43.4183C55.7778 41.6915 54.1343 35.8037 58.16 36.4591L58.1912 36.4799Z" stroke="#F9CD37" stroke-width="3.12074" stroke-miterlimit="10" stroke-linecap="round"/>
<path d="M61.9362 61.2481C66.0669 61.2481 69.4155 57.8995 69.4155 53.7687C69.4155 49.638 66.0669 46.2894 61.9362 46.2894C57.8054 46.2894 54.4568 49.638 54.4568 53.7687C54.4568 57.8995 57.8054 61.2481 61.9362 61.2481Z" stroke="#F9CD37" stroke-width="3.12074" stroke-miterlimit="10" stroke-linecap="round"/>
</g>
<defs>
<clipPath id="clip0_399_1256">
<rect width="81.7009" height="72.5676" fill="white" transform="translate(0 0.716187)"/>
</clipPath>
</defs>
</svg>
