<svg width="393" height="1176" viewBox="0 0 393 1176" fill="none" xmlns="http://www.w3.org/2000/svg">
<path d="M321.369 0.724121V1175.46" stroke="#E6F0FF" stroke-width="1.5"/>
<path d="M238.123 0.724121V1175.46" stroke="#E6F0FF" stroke-width="1.5"/>
<path d="M154.877 0.724121V1175.46" stroke="#E6F0FF" stroke-width="1.5"/>
<path d="M71.6309 0.724121V1175.46" stroke="#E6F0FF" stroke-width="1.5"/>
<path d="M-0.000488281 51.9592L393 51.9592" stroke="#E6F0FF" stroke-width="1.5"/>
<path d="M-0.000488281 196.33L393 196.33" stroke="#E6F0FF" stroke-width="1.5"/>
<path d="M-0.000488281 124.821L393 124.821" stroke="#E6F0FF" stroke-width="1.5"/>
<path d="M-0.000488281 266.109L393 266.109" stroke="#E6F0FF" stroke-width="1.5"/>
<path d="M-0.000488281 337.618L393 337.618" stroke="#E6F0FF" stroke-width="1.5"/>
<path d="M-0.000488281 409.128L393 409.128" stroke="#E6F0FF" stroke-width="1.5"/>
<path d="M-0.000488281 480.637L393 480.637" stroke="#E6F0FF" stroke-width="1.5"/>
<path d="M-0.000488281 552.146L393 552.146" stroke="#E6F0FF" stroke-width="1.5"/>
<path d="M-0.000488281 623.655L393 623.655" stroke="#E6F0FF" stroke-width="1.5"/>
<path d="M-0.000488281 695.165L393 695.165" stroke="#E6F0FF" stroke-width="1.5"/>
<path d="M-0.000488281 766.674L393 766.674" stroke="#E6F0FF" stroke-width="1.5"/>
<path d="M-0.000488281 838.184L393 838.184" stroke="#E6F0FF" stroke-width="1.5"/>
<path d="M-0.000488281 909.692L393 909.692" stroke="#E6F0FF" stroke-width="1.5"/>
<path d="M-0.000488281 981.202L393 981.202" stroke="#E6F0FF" stroke-width="1.5"/>
<path d="M-0.000488281 1052.71L393 1052.71" stroke="#E6F0FF" stroke-width="1.5"/>
<path d="M-0.000488281 1124.22L393 1124.22" stroke="#E6F0FF" stroke-width="1.5"/>
</svg>
