<svg width="393" height="274" viewBox="0 0 393 274" fill="none" xmlns="http://www.w3.org/2000/svg">
<path fill-rule="evenodd" clip-rule="evenodd" d="M193.073 0.737305L241.991 49.6555L218.605 73.0413L241.983 96.4194L193.065 145.338L169.687 121.959L146.322 145.325L97.4034 96.4067L120.769 73.0413L97.3958 49.6681L146.314 0.749913L169.687 24.1231L193.073 0.737305Z" fill="#F9CD37"/>
<path fill-rule="evenodd" clip-rule="evenodd" d="M0 29.7207H85.1363V175.564H196.894V275.047H16.7091V275.029H0V29.7207Z" fill="#0268FF"/>
<path fill-rule="evenodd" clip-rule="evenodd" d="M254.382 141.394V5.54907H351.433V5.6172C374.423 5.84377 393 27.7923 393 54.8346C393 81.8768 374.423 103.825 351.433 104.052V141.394H254.382Z" fill="#F99AF9"/>
<path fill-rule="evenodd" clip-rule="evenodd" d="M352.683 178.68C352.683 193.703 320.989 205.883 281.893 205.883C242.797 205.883 211.103 193.703 211.103 178.68C211.103 163.656 242.797 151.476 281.893 151.476C320.989 151.476 352.683 163.656 352.683 178.68ZM212.712 275.047V212.047H351.074V275.047H212.712Z" fill="#FE6A5D"/>
</svg>
