<svg width="1280" height="1115" viewBox="0 0 1280 1115" fill="none" xmlns="http://www.w3.org/2000/svg">
<path d="M76 0.819336V1114.4" stroke="#9AC3FF"/>
<path d="M171 0.819336V1114.4" stroke="#9AC3FF"/>
<path d="M266 0.819336V1114.4" stroke="#9AC3FF"/>
<path d="M361 0.819336V1114.4" stroke="#9AC3FF"/>
<path d="M456 0.819336V1114.4" stroke="#9AC3FF"/>
<path d="M551 0.819336V1114.4" stroke="#9AC3FF"/>
<path d="M646 0.819336V1114.4" stroke="#9AC3FF"/>
<path d="M741 0.819336V1114.4" stroke="#9AC3FF"/>
<path d="M836 0.819336V1114.4" stroke="#9AC3FF"/>
<path d="M931 0.819336V1114.4" stroke="#9AC3FF"/>
<path d="M1026 0.819336V1114.4" stroke="#9AC3FF"/>
<path d="M1121 0.819336V1114.4" stroke="#9AC3FF"/>
<path d="M1216 0.819336V1114.4" stroke="#9AC3FF"/>
<path d="M-108.588 1040.41L1400.59 1040.41" stroke="#9AC3FF"/>
<path d="M-108.588 945.408L1400.59 945.408" stroke="#9AC3FF"/>
<path d="M-108.588 850.407L1400.59 850.407" stroke="#9AC3FF"/>
<path d="M-108.588 755.407L1400.59 755.407" stroke="#9AC3FF"/>
<path d="M-108.588 660.407L1400.59 660.407" stroke="#9AC3FF"/>
<path d="M-108.588 565.407L1400.59 565.407" stroke="#9AC3FF"/>
<path d="M-108.588 470.407L1400.59 470.407" stroke="#9AC3FF"/>
<path d="M-108.588 375.408L1400.59 375.408" stroke="#9AC3FF"/>
<path d="M-108.588 280.407L1400.59 280.407" stroke="#9AC3FF"/>
<path d="M-108.588 185.407L1400.59 185.407" stroke="#9AC3FF"/>
<path d="M-108.588 93.8843L1400.59 93.8842" stroke="#9AC3FF"/>
<path d="M-108.588 1.81934L1400.59 1.81927" stroke="#9AC3FF"/>
</svg>
