<svg width="1280" height="635" viewBox="0 0 1280 635" fill="none" xmlns="http://www.w3.org/2000/svg">
<path d="M69.9995 1.23389V634.336" stroke="#9AC3FF"/>
<path d="M165 1.23389V634.336" stroke="#9AC3FF"/>
<path d="M260 1.23389V634.336" stroke="#9AC3FF"/>
<path d="M355 1.23389V634.336" stroke="#9AC3FF"/>
<path d="M450 1.23389V634.336" stroke="#9AC3FF"/>
<path d="M545 1.23389V634.336" stroke="#9AC3FF"/>
<path d="M640 1.23389V634.336" stroke="#9AC3FF"/>
<path d="M735 1.23389V634.336" stroke="#9AC3FF"/>
<path d="M830 1.23389V634.336" stroke="#9AC3FF"/>
<path d="M925 1.23389V634.336" stroke="#9AC3FF"/>
<path d="M1020 1.23389V634.336" stroke="#9AC3FF"/>
<path d="M1115 1.23389V634.336" stroke="#9AC3FF"/>
<path d="M1210 1.23389V634.336" stroke="#9AC3FF"/>
<path d="M-25.501 567.756L1305.5 567.756" stroke="#9AC3FF"/>
<path d="M-25.501 472.756L1305.5 472.756" stroke="#9AC3FF"/>
<path d="M-25.501 377.756L1305.5 377.756" stroke="#9AC3FF"/>
<path d="M-25.501 282.756L1305.5 282.756" stroke="#9AC3FF"/>
<path d="M-25.501 187.756L1305.5 187.756" stroke="#9AC3FF"/>
<path d="M-25.501 92.7561L1305.5 92.756" stroke="#9AC3FF"/>
<path d="M-25.501 1.23315L1305.5 1.23309" stroke="#9AC3FF"/>
</svg>
