<svg width="92" height="64" viewBox="0 0 92 64" fill="none" xmlns="http://www.w3.org/2000/svg">
<g clip-path="url(#clip0_1317_333)">
<path d="M35.6216 37.7978L28.2591 34.46C26.8083 33.6861 26.6586 32.9536 27.505 32.561C35.8251 28.7048 33.1672 30.4832 39.3802 27.0827C41.0363 23.1359 40.8735 19.5055 42.5297 15.5588C43.0306 14.3339 44.2018 12.8586 45.3627 13.5045C45.8306 13.7578 46.0801 14.2944 46.2787 14.7953L51.1189 21.7173C51.4606 22.5279 52.259 23.0137 53.1223 22.9751C56.9439 22.7568 60.8464 22.7474 64.7046 22.6119C66.3014 22.5573 67.1497 24.4846 66.0086 25.62C63.3281 28.2948 61.0185 31.3066 60.1984 34.9294C59.3501 38.6465 60.2444 42.5066 61.9202 45.9855C62.3712 46.911 61.424 47.8788 60.4675 47.5097L51.9555 44.1042C51.0676 43.7455 50.1836 43.4084 49.2609 43.2342C46.8874 42.7992 44.303 43.7171 42.726 45.553C41.3532 47.1526 38.2057 51.7602 38.1907 51.6736C38.0053 47.4001 38.6041 43.6596 37.851 39.8418C37.6373 38.7412 35.9648 38.0555 33.8869 37.0114L35.6216 37.7978Z" stroke="#F9CD37" stroke-width="4.39589" stroke-miterlimit="10" stroke-linecap="round"/>
<path d="M23.2968 21.9597L4.26355 18.2197" stroke="#F9CD37" stroke-width="4.39589" stroke-miterlimit="10" stroke-linecap="round"/>
<path d="M25.3262 48.5118L9.69623 58.0564" stroke="#F9CD37" stroke-width="4.39589" stroke-miterlimit="10" stroke-linecap="round"/>
<path d="M64.6465 16.3754L78.4189 3.71812" stroke="#F9CD37" stroke-width="4.39589" stroke-miterlimit="10" stroke-linecap="round"/>
<path d="M70.8778 39.252C77.2715 40.4826 83.3686 43.2149 88.5599 47.1533" stroke="#F9CD37" stroke-width="4.39589" stroke-miterlimit="10" stroke-linecap="round"/>
</g>
<defs>
<clipPath id="clip0_1317_333">
<rect width="83.9615" height="48.9043" fill="white" transform="translate(-0.000488281 15.124) rotate(-9.86486)"/>
</clipPath>
</defs>
</svg>
