<svg width="1331" height="551" viewBox="0 0 1331 551" fill="none" xmlns="http://www.w3.org/2000/svg">
<path d="M96 0V551.005" stroke="#FDD7FD"/>
<path d="M191 0V551.005" stroke="#FDD7FD"/>
<path d="M286 0V551.005" stroke="#FDD7FD"/>
<path d="M381 0V551.005" stroke="#FDD7FD"/>
<path d="M476 0V551.005" stroke="#FDD7FD"/>
<path d="M571 0V551.005" stroke="#FDD7FD"/>
<path d="M666 0V551.005" stroke="#FDD7FD"/>
<path d="M761 0V551.005" stroke="#FDD7FD"/>
<path d="M856 0V551.005" stroke="#FDD7FD"/>
<path d="M951 0V551.005" stroke="#FDD7FD"/>
<path d="M1046 0V551.005" stroke="#FDD7FD"/>
<path d="M1141 0V551.005" stroke="#FDD7FD"/>
<path d="M1236 0V551.005" stroke="#FDD7FD"/>
<path d="M0 496.581L1331 496.581" stroke="#FDD7FD"/>
<path d="M0 401.368L1331 401.368" stroke="#FDD7FD"/>
<path d="M0 306.155L1331 306.154" stroke="#FDD7FD"/>
<path d="M0 210.941L1331 210.941" stroke="#FDD7FD"/>
<path d="M0 115.728L1331 115.728" stroke="#FDD7FD"/>
<path d="M0 24L1331 23.9999" stroke="#FDD7FD"/>
</svg>
