<svg width="1331" height="660" viewBox="0 0 1331 660" fill="none" xmlns="http://www.w3.org/2000/svg">
<path d="M87 0V659.264" stroke="#9AC3FF"/>
<path d="M182 0V659.264" stroke="#9AC3FF"/>
<path d="M277 0V659.264" stroke="#9AC3FF"/>
<path d="M372 0V659.264" stroke="#9AC3FF"/>
<path d="M467 0V659.264" stroke="#9AC3FF"/>
<path d="M562 0V659.264" stroke="#9AC3FF"/>
<path d="M657 0V659.264" stroke="#9AC3FF"/>
<path d="M752 0V659.264" stroke="#9AC3FF"/>
<path d="M847 0V659.264" stroke="#9AC3FF"/>
<path d="M942 0V659.264" stroke="#9AC3FF"/>
<path d="M1037 0V659.264" stroke="#9AC3FF"/>
<path d="M1132 0V659.264" stroke="#9AC3FF"/>
<path d="M1227 0V659.264" stroke="#9AC3FF"/>
<path d="M0 572L1331 572" stroke="#9AC3FF"/>
<path d="M0 477L1331 477" stroke="#9AC3FF"/>
<path d="M0 382L1331 382" stroke="#9AC3FF"/>
<path d="M0 287L1331 287" stroke="#9AC3FF"/>
<path d="M0 192L1331 192" stroke="#9AC3FF"/>
<path d="M0 97L1331 96.9999" stroke="#9AC3FF"/>
</svg>
