<svg width="156" height="101" viewBox="0 0 156 101" fill="none" xmlns="http://www.w3.org/2000/svg">
<path d="M-17.6724 45.6582C-27.8823 42.1305 -33.1739 28.5964 -28.018 19.0648C-24.8295 13.1627 -18.69 9.43151 -12.4148 7.02319C0.780159 1.96909 16.2138 1.90125 28.6964 8.51567C41.179 15.1301 50.0661 28.8677 49.2859 42.9785C49.0145 47.7951 47.556 52.7814 44.13 56.1734C40.7041 59.5654 35.0395 61.024 30.8673 58.6157C27.0343 56.4109 25.3044 51.5942 25.7793 47.2185C26.2541 42.8428 28.5946 38.8742 31.3082 35.4143C41.586 22.3551 58.4104 14.9944 74.9973 15.4015C91.6182 15.8085 107.73 23.7458 118.822 36.0927C122.689 40.4006 126.047 45.319 127.506 50.9158C128.964 56.5126 128.286 62.8557 124.758 67.4349C121.875 71.2 116.855 73.4048 112.242 72.7603C111.394 72.6247 110.885 73.6762 111.461 74.3207C117.058 80.9012 121.298 88.194 124.317 96.267C124.792 97.522 126.42 97.7255 127.2 96.6401C133.645 87.5834 142.668 80.3584 152.946 76.1184" stroke="white" stroke-width="5.82425" stroke-miterlimit="10" stroke-linecap="round"/>
</svg>
