<svg width="135" height="88" viewBox="0 0 135 88" fill="none" xmlns="http://www.w3.org/2000/svg">
<path d="M-14.6714 40.1813C-23.4364 37.1528 -27.9791 25.5341 -23.5529 17.3514C-20.8156 12.2846 -15.5449 9.08144 -10.1578 7.01394C1.16976 2.67511 14.4192 2.61687 25.1353 8.29521C35.8513 13.9736 43.4807 25.767 42.8109 37.8808C42.578 42.0158 41.3258 46.2964 38.3847 49.2084C35.4436 52.1204 30.5807 53.3725 26.9989 51.305C23.7084 49.4122 22.2233 45.2772 22.631 41.5208C23.0387 37.7643 25.0479 34.3573 27.3775 31.3871C36.2008 20.1761 50.6441 13.8571 64.8837 14.2065C79.1523 14.5559 92.9842 21.37 102.506 31.9695C105.826 35.6677 108.709 39.8901 109.961 44.6948C111.213 49.4996 110.631 54.945 107.602 58.8761C105.127 62.1084 100.817 64.0012 96.8571 63.4479C96.1291 63.3314 95.6923 64.2342 96.1873 64.7874C100.992 70.4367 104.632 76.6974 107.224 83.6279C107.631 84.7053 109.029 84.88 109.699 83.9482C115.232 76.1732 122.977 69.9707 131.801 66.3308" stroke="white" stroke-width="5.82394" stroke-miterlimit="10" stroke-linecap="round"/>
</svg>
