<svg width="54" height="54" viewBox="0 0 54 54" fill="none" xmlns="http://www.w3.org/2000/svg">
<path d="M17.2469 4.9375H35.8205C42.8961 4.9375 48.6451 10.6865 48.6451 17.7621V36.3357C48.6451 39.737 47.2939 42.999 44.8888 45.4041C42.4837 47.8092 39.2218 49.1603 35.8205 49.1603H17.2469C10.1712 49.1603 4.42226 43.4114 4.42226 36.3357V17.7621C4.42226 14.3608 5.77342 11.0988 8.1785 8.69374C10.5836 6.28866 13.8456 4.9375 17.2469 4.9375ZM16.8046 9.35978C14.6935 9.35978 12.6688 10.1984 11.176 11.6912C9.68319 13.1841 8.84454 15.2087 8.84454 17.3199V36.7779C8.84454 41.1781 12.4045 44.738 16.8046 44.738H36.2627C38.3738 44.738 40.3985 43.8994 41.8913 42.4066C43.3841 40.9138 44.2228 38.8891 44.2228 36.7779V17.3199C44.2228 12.9197 40.6628 9.35978 36.2627 9.35978H16.8046ZM38.1422 12.6765C38.8752 12.6765 39.5782 12.9677 40.0965 13.486C40.6149 14.0044 40.9061 14.7074 40.9061 15.4404C40.9061 16.1735 40.6149 16.8765 40.0965 17.3948C39.5782 17.9131 38.8752 18.2043 38.1422 18.2043C37.4091 18.2043 36.7061 17.9131 36.1878 17.3948C35.6694 16.8765 35.3782 16.1735 35.3782 15.4404C35.3782 14.7074 35.6694 14.0044 36.1878 13.486C36.7061 12.9677 37.4091 12.6765 38.1422 12.6765ZM26.5337 15.9932C29.4658 15.9932 32.2779 17.158 34.3512 19.2313C36.4246 21.3047 37.5894 24.1168 37.5894 27.0489C37.5894 29.9811 36.4246 32.7931 34.3512 34.8665C32.2779 36.9398 29.4658 38.1046 26.5337 38.1046C23.6015 38.1046 20.7894 36.9398 18.7161 34.8665C16.6428 32.7931 15.478 29.9811 15.478 27.0489C15.478 24.1168 16.6428 21.3047 18.7161 19.2313C20.7894 17.158 23.6015 15.9932 26.5337 15.9932ZM26.5337 20.4155C24.7744 20.4155 23.0871 21.1144 21.8431 22.3584C20.5991 23.6024 19.9002 25.2896 19.9002 27.0489C19.9002 28.8082 20.5991 30.4954 21.8431 31.7394C23.0871 32.9835 24.7744 33.6823 26.5337 33.6823C28.293 33.6823 29.9802 32.9835 31.2242 31.7394C32.4682 30.4954 33.1671 28.8082 33.1671 27.0489C33.1671 25.2896 32.4682 23.6024 31.2242 22.3584C29.9802 21.1144 28.293 20.4155 26.5337 20.4155Z" fill="white"/>
</svg>
