<svg width="170" height="60" viewBox="0 0 170 60" fill="none" xmlns="http://www.w3.org/2000/svg">
<path d="M14.1321 2.99854H0V26.729H14.1321V2.99854Z" fill="white"/>
<path d="M11.7963 30.98H0V54.7105H11.7963V30.98Z" fill="white"/>
<path d="M20.0055 17.1089H5.87335V26.729H20.0055V17.1089Z" fill="white"/>
<path d="M39.3563 26.729L21.8166 8.58129L29.614 0.514648L47.1525 18.6623L39.3563 26.729Z" fill="white"/>
<path d="M29.614 26.729L47.1525 8.58129L39.3563 0.514648L21.8166 18.6623L29.614 26.729Z" fill="white"/>
<path d="M23.2566 40.6835C23.2675 33.7232 16.6457 30.98 9.58144 30.98C2.51719 30.98 0.337341 35.3953 0.337341 40.7295C0.337341 46.0636 2.51719 50.387 9.58144 50.387C16.6457 50.387 23.2433 49.0571 23.2566 40.6835Z" fill="white"/>
<path d="M42.6357 41.4995H26.3322V54.7104H42.6357V41.4995Z" fill="white"/>
<path d="M34.4846 40.5251C39.0604 40.5251 42.7699 38.1456 42.7699 35.2103C42.7699 32.275 39.0604 29.8955 34.4846 29.8955C29.9087 29.8955 26.1992 32.275 26.1992 35.2103C26.1992 38.1456 29.9087 40.5251 34.4846 40.5251Z" fill="white"/>
<path d="M57.5322 24.5146V6.0869H63.0079V19.8024H69.2733V24.5146H57.5322ZM70.7901 24.5146L76.6343 15.3008L70.7901 6.0869H76.7923L79.7934 11.4046L82.7945 6.0869H88.7966L82.9524 15.3008L88.7966 24.5146H82.7945L79.7934 19.1969L76.7923 24.5146H70.7901ZM99.5425 6.0869C101.508 6.0869 103.14 6.73626 104.439 8.03498C105.738 9.3337 106.387 10.9746 106.387 12.9578C106.387 14.941 105.738 16.5819 104.439 17.8807C103.14 19.1618 101.508 19.8024 99.5425 19.8024H96.1202V24.5146H90.6446V6.0869H99.5425ZM98.3842 15.564C99.0862 15.564 99.6654 15.3183 100.122 14.8269C100.596 14.3355 100.832 13.7125 100.832 12.9578C100.832 12.2032 100.596 11.5801 100.122 11.0887C99.6654 10.5973 99.095 10.3516 98.4105 10.3516H96.1202V15.564H98.3842ZM108.203 24.5146V6.0869H113.679V24.5146H108.203Z" fill="white"/>
<path d="M64.0872 53.6133C61.6828 53.6133 59.7874 53.0342 58.4009 51.8759C57.032 50.7 56.3476 49.0766 56.3476 47.0057H61.8232C61.8232 47.7954 62.0251 48.4185 62.4287 48.8748C62.8499 49.3311 63.4291 49.5592 64.1662 49.5592C65.3947 49.5592 66.009 49.0503 66.009 48.0324C66.009 47.6112 65.8773 47.2777 65.6141 47.032C65.3508 46.7687 64.9033 46.5143 64.2715 46.2686L60.6123 44.926C57.9797 43.9432 56.6635 42.2057 56.6635 39.7136C56.6635 37.9936 57.304 36.6159 58.5852 35.5805C59.8839 34.545 61.6477 34.0273 63.8766 34.0273C66.123 34.0273 67.9132 34.5538 69.247 35.6068C70.5983 36.6598 71.274 38.0989 71.274 39.9242H65.7984C65.7984 39.2397 65.6229 38.7132 65.2718 38.3446C64.9384 37.9585 64.4558 37.7655 63.824 37.7655C63.315 37.7655 62.9113 37.8883 62.613 38.134C62.3146 38.3797 62.1655 38.722 62.1655 39.1607C62.1655 39.5293 62.3146 39.854 62.613 40.1348C62.9113 40.398 63.4379 40.67 64.1925 40.9508L67.5622 42.2408C70.1771 43.2587 71.4846 45.0313 71.4846 47.5585C71.4846 49.4188 70.8177 50.8931 69.4839 51.9812C68.1501 53.0693 66.3512 53.6133 64.0872 53.6133ZM82.6815 53.6133C79.6629 53.6133 77.2059 52.7007 75.3104 50.8755C73.415 49.0327 72.4673 46.681 72.4673 43.8203C72.4673 40.9596 73.415 38.6167 75.3104 36.7914C77.2059 34.9487 79.6629 34.0273 82.6815 34.0273C85.5598 34.0273 87.8764 34.703 89.6314 36.0543C91.3865 37.4057 92.378 39.2836 92.6062 41.688H86.8146C86.6216 40.828 86.1653 40.1523 85.4457 39.6609C84.7261 39.1519 83.8135 38.8975 82.7079 38.8975C81.2863 38.8975 80.1719 39.3362 79.3646 40.2137C78.5748 41.0912 78.1799 42.2934 78.1799 43.8203C78.1799 45.3472 78.5748 46.5494 79.3646 47.4269C80.1719 48.3044 81.2863 48.7431 82.7079 48.7431C83.8135 48.7431 84.7261 48.4974 85.4457 48.006C86.1653 47.4971 86.6216 46.8126 86.8146 45.9527H92.6062C92.378 48.357 91.3865 50.2349 89.6314 51.5863C87.8764 52.9377 85.5598 53.6133 82.6815 53.6133ZM94.6036 53.0342V34.6064H100.079V41.609H105.213V34.6064H110.688V53.0342H105.213V46.1633H100.079V53.0342H94.6036ZM130.363 50.7702C128.52 52.6656 126.054 53.6133 122.965 53.6133C119.876 53.6133 117.411 52.6656 115.568 50.7702C113.725 48.8748 112.804 46.5581 112.804 43.8203C112.804 41.0825 113.725 38.7658 115.568 36.8704C117.411 34.975 119.876 34.0273 122.965 34.0273C126.054 34.0273 128.52 34.975 130.363 36.8704C132.205 38.7658 133.127 41.0825 133.127 43.8203C133.127 46.5581 132.205 48.8748 130.363 50.7702ZM122.965 48.7168C124.387 48.7168 125.484 48.2517 126.256 47.3216C127.046 46.3739 127.432 45.2068 127.414 43.8203C127.432 42.4338 127.046 41.2755 126.256 40.3454C125.484 39.3976 124.387 38.9238 122.965 38.9238C121.561 38.9238 120.464 39.3976 119.675 40.3454C118.902 41.2755 118.516 42.4338 118.516 43.8203C118.516 45.2068 118.902 46.3739 119.675 47.3216C120.464 48.2517 121.561 48.7168 122.965 48.7168ZM151.906 50.7702C150.064 52.6656 147.598 53.6133 144.509 53.6133C141.42 53.6133 138.954 52.6656 137.111 50.7702C135.269 48.8748 134.347 46.5581 134.347 43.8203C134.347 41.0825 135.269 38.7658 137.111 36.8704C138.954 34.975 141.42 34.0273 144.509 34.0273C147.598 34.0273 150.064 34.975 151.906 36.8704C153.749 38.7658 154.67 41.0825 154.67 43.8203C154.67 46.5581 153.749 48.8748 151.906 50.7702ZM144.509 48.7168C145.93 48.7168 147.027 48.2517 147.8 47.3216C148.589 46.3739 148.975 45.2068 148.958 43.8203C148.975 42.4338 148.589 41.2755 147.8 40.3454C147.027 39.3976 145.93 38.9238 144.509 38.9238C143.105 38.9238 142.008 39.3976 141.218 40.3454C140.446 41.2755 140.06 42.4338 140.06 43.8203C140.06 45.2068 140.446 46.3739 141.218 47.3216C142.008 48.2517 143.105 48.7168 144.509 48.7168ZM156.792 53.0342V34.6064H162.268V48.3219H168.533V53.0342H156.792Z" fill="white"/>
</svg>
