<svg width="152" height="46" viewBox="0 0 152 46" fill="none" xmlns="http://www.w3.org/2000/svg">
<path fill-rule="evenodd" clip-rule="evenodd" d="M26.3031 3.27588L32.9673 9.94016L29.7814 13.1261L32.9662 16.3109L26.302 22.9752L23.1171 19.7903L19.934 22.9735L13.2697 16.3092L16.4529 13.1261L13.2686 9.94182L19.9329 3.27755L23.1171 6.46179L26.3031 3.27588Z" fill="#F9CD37"/>
<path fill-rule="evenodd" clip-rule="evenodd" d="M6.10352e-05 7.22437H11.5985V27.0931H26.8235V40.646H2.27636V40.6435H6.10352e-05V7.22437Z" fill="#0268FF"/>
<path fill-rule="evenodd" clip-rule="evenodd" d="M34.6553 22.4377V3.93115H47.8769V3.94054C51.0089 3.97144 53.5397 6.96155 53.5397 10.6456C53.5397 14.3296 51.0089 17.3197 47.8769 17.3506V22.4377H34.6553Z" fill="#F99AF9"/>
<path fill-rule="evenodd" clip-rule="evenodd" d="M48.0472 27.5175C48.0472 29.5643 43.7295 31.2235 38.4033 31.2235C33.0771 31.2235 28.7593 29.5643 28.7593 27.5175C28.7593 25.4707 33.0771 23.8115 38.4033 23.8115C43.7295 23.8115 48.0472 25.4707 48.0472 27.5175ZM28.9785 40.646V32.0632H47.828V40.646H28.9785Z" fill="#FE6A5D"/>
<path d="M67.4561 40.6505C65.5338 40.6505 64.0184 40.1875 62.9099 39.2614C61.8154 38.3213 61.2682 37.0234 61.2682 35.3676H65.6461C65.6461 35.9991 65.8074 36.4972 66.1301 36.862C66.4669 37.2268 66.9299 37.4092 67.5193 37.4092C68.5015 37.4092 68.9926 37.0023 68.9926 36.1885C68.9926 35.8517 68.8874 35.5851 68.6769 35.3887C68.4664 35.1782 68.1086 34.9747 67.6035 34.7783L64.6779 33.7049C62.5731 32.9191 61.5207 31.53 61.5207 29.5375C61.5207 28.1624 62.0329 27.0609 63.0572 26.233C64.0956 25.4052 65.5057 24.9912 67.2878 24.9912C69.0838 24.9912 70.515 25.4122 71.5814 26.2541C72.6619 27.096 73.2021 28.2466 73.2021 29.7059H68.8242C68.8242 29.1586 68.6839 28.7377 68.4033 28.443C68.1367 28.1343 67.7508 27.98 67.2457 27.98C66.8387 27.98 66.516 28.0782 66.2775 28.2746C66.0389 28.4711 65.9197 28.7447 65.9197 29.0955C65.9197 29.3901 66.0389 29.6497 66.2775 29.8742C66.516 30.0847 66.937 30.3022 67.5403 30.5267L70.2344 31.558C72.3251 32.3719 73.3705 33.7891 73.3705 35.8096C73.3705 37.297 72.8373 38.4756 71.7709 39.3456C70.7045 40.2156 69.2662 40.6505 67.4561 40.6505ZM82.3226 40.6505C79.9091 40.6505 77.9447 39.9209 76.4293 38.4616C74.9138 36.9883 74.1561 35.108 74.1561 32.8209C74.1561 30.5337 74.9138 28.6605 76.4293 27.2012C77.9447 25.7279 79.9091 24.9912 82.3226 24.9912C84.6238 24.9912 86.4759 25.5314 87.8791 26.6119C89.2823 27.6923 90.075 29.1937 90.2575 31.116H85.627C85.4727 30.4285 85.1078 29.8883 84.5325 29.4954C83.9572 29.0885 83.2276 28.885 82.3436 28.885C81.207 28.885 80.316 29.2358 79.6706 29.9374C79.0392 30.639 78.7234 31.6001 78.7234 32.8209C78.7234 34.0416 79.0392 35.0028 79.6706 35.7044C80.316 36.406 81.207 36.7568 82.3436 36.7568C83.2276 36.7568 83.9572 36.5603 84.5325 36.1674C85.1078 35.7605 85.4727 35.2133 85.627 34.5257H90.2575C90.075 36.4481 89.2823 37.9495 87.8791 39.0299C86.4759 40.1103 84.6238 40.6505 82.3226 40.6505ZM91.8544 40.1875V25.4543H96.2323V31.0529H100.337V25.4543H104.714V40.1875H100.337V34.6941H96.2323V40.1875H91.8544ZM120.444 38.3774C118.971 39.8928 117 40.6505 114.53 40.6505C112.06 40.6505 110.089 39.8928 108.616 38.3774C107.142 36.862 106.406 35.0098 106.406 32.8209C106.406 30.6319 107.142 28.7798 108.616 27.2643C110.089 25.7489 112.06 24.9912 114.53 24.9912C117 24.9912 118.971 25.7489 120.444 27.2643C121.918 28.7798 122.654 30.6319 122.654 32.8209C122.654 35.0098 121.918 36.862 120.444 38.3774ZM114.53 36.7357C115.667 36.7357 116.544 36.3639 117.161 35.6202C117.792 34.8625 118.101 33.9294 118.087 32.8209C118.101 31.7124 117.792 30.7863 117.161 30.0426C116.544 29.2849 115.667 28.9061 114.53 28.9061C113.407 28.9061 112.53 29.2849 111.899 30.0426C111.282 30.7863 110.973 31.7124 110.973 32.8209C110.973 33.9294 111.282 34.8625 111.899 35.6202C112.53 36.3639 113.407 36.7357 114.53 36.7357ZM137.669 38.3774C136.195 39.8928 134.224 40.6505 131.754 40.6505C129.285 40.6505 127.313 39.8928 125.84 38.3774C124.367 36.862 123.63 35.0098 123.63 32.8209C123.63 30.6319 124.367 28.7798 125.84 27.2643C127.313 25.7489 129.285 24.9912 131.754 24.9912C134.224 24.9912 136.195 25.7489 137.669 27.2643C139.142 28.7798 139.879 30.6319 139.879 32.8209C139.879 35.0098 139.142 36.862 137.669 38.3774ZM131.754 36.7357C132.891 36.7357 133.768 36.3639 134.385 35.6202C135.017 34.8625 135.325 33.9294 135.311 32.8209C135.325 31.7124 135.017 30.7863 134.385 30.0426C133.768 29.2849 132.891 28.9061 131.754 28.9061C130.632 28.9061 129.755 29.2849 129.123 30.0426C128.506 30.7863 128.197 31.7124 128.197 32.8209C128.197 33.9294 128.506 34.8625 129.123 35.6202C129.755 36.3639 130.632 36.7357 131.754 36.7357ZM141.575 40.1875V25.4543H145.953V36.42H150.962V40.1875H141.575Z" fill="black"/>
<path d="M62.2153 19.8125V5.07926H66.5932V16.045H71.6025V19.8125H62.2153ZM72.8152 19.8125L77.4877 12.4459L72.8152 5.07926H77.614L80.0134 9.33086L82.4128 5.07926H87.2117L82.5391 12.4459L87.2117 19.8125H82.4128L80.0134 15.5609L77.614 19.8125H72.8152ZM95.8031 5.07926C97.3747 5.07926 98.6796 5.59844 99.718 6.63678C100.756 7.67512 101.275 8.98708 101.275 10.5727C101.275 12.1582 100.756 13.4702 99.718 14.5085C98.6796 15.5328 97.3747 16.045 95.8031 16.045H93.067V19.8125H88.6891V5.07926H95.8031ZM94.8771 12.6564C95.4383 12.6564 95.9014 12.4599 96.2662 12.067C96.645 11.6741 96.8345 11.176 96.8345 10.5727C96.8345 9.9693 96.645 9.47117 96.2662 9.07829C95.9014 8.6854 95.4453 8.48896 94.8981 8.48896H93.067V12.6564H94.8771ZM102.728 19.8125V5.07926H107.105V19.8125H102.728Z" fill="black"/>
</svg>
