<svg width="104" height="80" viewBox="0 0 104 80" fill="none" xmlns="http://www.w3.org/2000/svg">
<path d="M-12.7336 39.9434C-19.2299 37.5138 -22.3635 28.7495 -18.9083 22.7458C-16.75 19.0304 -12.7584 16.7306 -8.70091 15.3046C-0.157779 12.2786 9.71706 12.5185 17.6069 16.9707C25.4967 21.4228 30.9513 30.3915 30.1778 39.415C29.9168 42.4984 28.8919 45.6627 26.6414 47.7823C24.3909 49.902 20.7454 50.7346 18.1102 49.1107C15.7001 47.6337 14.6624 44.5153 15.0507 41.7289C15.4389 38.9425 16.9997 36.4233 18.8039 34.2644C25.61 26.0844 36.5059 21.641 47.1401 22.2124C57.7742 22.7838 67.9569 28.1205 74.8576 36.2323C77.2596 39.0634 79.3275 42.2619 80.1672 45.8868C81.0069 49.5116 80.4603 53.5542 78.1327 56.4291C76.2164 58.7793 72.9709 60.1181 70.0415 59.6114C69.4995 59.516 69.1625 60.1584 69.515 60.6022C72.9935 64.9093 75.5803 69.667 77.3647 74.8833C77.6376 75.6906 78.6804 75.8671 79.2173 75.1788C83.5077 69.4868 89.4204 65.0225 96.0678 62.4909" stroke="#F99AF9" stroke-width="4.34704" stroke-miterlimit="10" stroke-linecap="round"/>
</svg>
