<svg width="62" height="118" viewBox="0 0 62 118" fill="none" xmlns="http://www.w3.org/2000/svg">
<mask id="mask0_926_3012" style="mask-type:alpha" maskUnits="userSpaceOnUse" x="0" y="0" width="64" height="118">
<rect y="0.594482" width="63.9375" height="116.582" fill="#D9D9D9"/>
</mask>
<g mask="url(#mask0_926_3012)">
<path d="M124.46 41.4331C116.265 23.0365 89.8895 13.4918 71.3608 22.2354C66.167 24.6798 61.5179 28.4922 59.4041 33.5513C56.7385 39.9459 58.8126 48.4994 66.5554 51.5455C68.9404 52.4849 71.6407 52.6036 74.0419 51.8587C81.8716 49.4589 81.8952 40.7732 77.5001 35.6523C74.1343 31.717 68.7869 29.6513 63.5447 28.879C45.0066 26.1463 26.2533 39.8975 25.0016 57.1702C24.4879 64.1948 26.814 71.9305 33.3793 76.1512C36.49 78.1598 40.3594 79.0012 43.9894 78.342C54.7191 76.4192 54.8084 64.316 48.3134 58.4441C43.1846 53.8252 35.2884 52.7543 28.5885 54.4085C16.4558 57.4096 7.9717 68.6783 7.69298 80.4641C7.44651 91.3949 13.6826 102.246 23.0192 109.31C23.3686 109.572 23.0975 110.059 22.6869 109.953C18.7901 108.894 14.7532 109.352 10.7591 110.455" stroke="#F99AF9" stroke-width="3.45435" stroke-miterlimit="10" stroke-linecap="round"/>
<path d="M23.5764 109.088C21.8073 105.429 21.3079 101.29 22.1521 97.4399" stroke="#F99AF9" stroke-width="3.45435" stroke-miterlimit="10" stroke-linecap="round"/>
</g>
</svg>
