<svg width="136" height="132" viewBox="0 0 136 132" fill="none" xmlns="http://www.w3.org/2000/svg">
<path d="M101.988 128.953C121.117 118.47 129.072 89.1495 117.984 69.927C114.883 64.5382 110.354 59.8591 104.705 58.0278C97.5651 55.7196 88.5167 58.7199 85.9178 67.3489C85.1161 70.007 85.2283 72.9324 86.2461 75.458C89.5336 83.6962 98.9113 82.9485 104.048 77.7484C107.996 73.7649 109.75 67.8088 110.117 62.0814C111.417 41.8273 94.9037 22.8083 76.1475 22.9947C68.5191 23.0654 60.3759 26.2649 56.4043 33.7274C54.513 37.264 53.9492 41.5158 54.9839 45.3754C58.0145 56.7864 71.0872 55.8054 76.8475 48.2717C81.3767 42.3244 81.8299 33.7056 79.4478 26.6206C75.1283 13.7912 62.2093 5.6362 49.4623 6.38444C37.6412 7.09138 26.4827 14.7889 19.6896 25.4958C19.4373 25.8963 18.8878 25.6471 18.9652 25.1944C19.762 20.8938 18.9076 16.577 17.3617 12.3637" stroke="#F99AF9" stroke-width="3.74143" stroke-miterlimit="10" stroke-linecap="round"/>
<path d="M19.9782 26.0778C23.7706 23.8424 28.1934 22.935 32.425 23.5034" stroke="#F99AF9" stroke-width="3.74143" stroke-miterlimit="10" stroke-linecap="round"/>
</svg>
