<svg width="64" height="117" viewBox="0 0 64 117" fill="none" xmlns="http://www.w3.org/2000/svg">
<mask id="mask0_1127_5333" style="mask-type:alpha" maskUnits="userSpaceOnUse" x="0" y="0" width="64" height="117">
<rect x="0.0625" width="63.9375" height="116.582" fill="#D9D9D9"/>
</mask>
<g mask="url(#mask0_1127_5333)">
<path d="M124.522 40.8387C116.328 22.442 89.952 12.8974 71.4233 21.6409C66.2295 24.0853 61.5804 27.8977 59.4666 32.9568C56.801 39.3514 58.8751 47.9049 66.6179 50.951C69.0029 51.8904 71.7032 52.0091 74.1044 51.2642C81.9341 48.8644 81.9577 40.1788 77.5626 35.0578C74.1968 31.1225 68.8494 29.0568 63.6072 28.2846C45.0691 25.5519 26.3158 39.303 25.0641 56.5757C24.5504 63.6003 26.8765 71.336 33.4418 75.5567C36.5525 77.5653 40.4219 78.4067 44.0519 77.7475C54.7816 75.8247 54.8709 63.7215 48.3759 57.8496C43.2471 53.2307 35.3509 52.1598 28.651 53.814C16.5183 56.8151 8.0342 68.0838 7.75548 79.8697C7.50901 90.8004 13.7451 101.652 23.0817 108.715C23.4311 108.978 23.16 109.464 22.7494 109.359C18.8526 108.299 14.8157 108.758 10.8216 109.861" stroke="#F99AF9" stroke-width="3.45435" stroke-miterlimit="10" stroke-linecap="round"/>
<path d="M23.6392 108.494C21.87 104.835 21.3707 100.696 22.2148 96.8455" stroke="#F99AF9" stroke-width="3.45435" stroke-miterlimit="10" stroke-linecap="round"/>
</g>
</svg>
