<svg width="48" height="48" viewBox="0 0 48 48" fill="none" xmlns="http://www.w3.org/2000/svg">
<rect x="1" y="1" width="46" height="46" fill="white"/>
<rect x="1" y="1" width="46" height="46" stroke="#3586FF" stroke-width="2"/>
<path fill-rule="evenodd" clip-rule="evenodd" d="M25.379 14.7123C25.7956 14.2958 26.471 14.2958 26.8875 14.7123L35.4209 23.2457C35.8374 23.6622 35.8374 24.3376 35.4209 24.7541L26.8875 33.2876C26.471 33.704 25.7956 33.704 25.379 33.2876C24.9625 32.8709 24.9625 32.1955 25.379 31.7789L32.0915 25.0666H13.3333C12.7442 25.0666 12.2666 24.589 12.2666 23.9999C12.2666 23.4108 12.7442 22.9332 13.3333 22.9332H32.0915L25.379 16.2208C24.9625 15.8043 24.9625 15.1289 25.379 14.7123Z" fill="#3586FF"/>
</svg>
