<svg width="43" height="64" viewBox="0 0 43 64" fill="none" xmlns="http://www.w3.org/2000/svg">
<path d="M2.65404 23.0796C7.96289 25.2483 11.8747 30.4831 14.3894 37.2136C14.8085 38.3354 15.996 38.111 16.2056 36.9145C17.1137 31.1562 20.1872 25.697 23.8196 22.1822C24.3784 21.584 24.3784 20.4622 23.8196 19.9387C19.4887 16.2743 12.7828 -0.477073 12.1541 2.66382C10.1284 13.3578 5.44817 17.3961 2.37462 20.7613C1.74594 21.4344 1.9555 22.7805 2.65404 23.0796Z" stroke="#F9CD37" stroke-width="3.91552" stroke-miterlimit="10" stroke-linecap="round"/>
<path d="M28.0543 55.1234C31.4254 57.2086 31.1261 58.1063 33.2986 61.5549C33.6731 62.1163 34.4223 62.0361 34.5721 61.3945C35.3961 57.9459 37.269 54.2567 39.7411 52.0913C40.4154 51.5299 40.4903 50.407 39.8909 49.6852C36.6697 46.1564 36.0704 42.6276 33.3735 39.3394C32.6243 38.4572 31.2759 38.6176 30.8264 39.6602C30.0024 41.5048 29.478 43.7504 28.579 45.4346C27.4553 47.4396 26.1068 49.3644 24.6086 51.0486C24.0093 51.6903 24.1591 52.6527 24.9082 53.1339L28.0543 55.1234Z" stroke="#F9CD37" stroke-width="3.45487" stroke-miterlimit="10" stroke-linecap="round"/>
</svg>
