<svg width="48" height="49" viewBox="0 0 48 49" fill="none" xmlns="http://www.w3.org/2000/svg">
<rect x="-1" y="1" width="46" height="46" transform="matrix(-1 0 0 1 46 0.0705566)" fill="white"/>
<rect x="-1" y="1" width="46" height="46" transform="matrix(-1 0 0 1 46 0.0705566)" stroke="#61A0FF" stroke-width="2"/>
<path fill-rule="evenodd" clip-rule="evenodd" d="M22.621 14.7829C22.2044 14.3663 21.529 14.3663 21.1125 14.7829L12.5791 23.3162C12.1626 23.7328 12.1626 24.4081 12.5791 24.8247L21.1125 33.3581C21.529 33.7746 22.2044 33.7746 22.621 33.3581C23.0375 32.9415 23.0375 32.2661 22.621 31.8495L15.9085 25.1371H34.6667C35.2558 25.1371 35.7334 24.6596 35.7334 24.0705C35.7334 23.4814 35.2558 23.0038 34.6667 23.0038H15.9085L22.621 16.2914C23.0375 15.8748 23.0375 15.1994 22.621 14.7829Z" fill="#F99AF9"/>
</svg>