<svg width="139" height="158" viewBox="0 0 139 158" fill="none" xmlns="http://www.w3.org/2000/svg">
<path d="M142.384 155.156C165.466 136.842 169.381 95.9901 150.241 72.9203C144.885 66.4513 137.789 61.2524 129.85 60.1004C119.818 58.653 108.453 64.7085 106.958 76.7898C106.495 80.5117 107.311 84.3813 109.241 87.5124C115.495 97.7329 127.811 94.6018 133.466 86.5081C137.816 80.305 138.795 71.975 137.979 64.2654C135.097 37.001 108.779 15.4377 83.8477 19.9571C73.7065 21.7885 63.5925 27.9031 60.0037 38.7438C58.2908 43.8836 58.5083 49.6732 60.7649 54.5766C67.3988 69.0802 84.5817 64.7971 90.5359 53.4542C95.2123 44.5039 93.8529 32.9247 89.0678 24.0335C80.3948 7.93484 61.3359 0.0184306 44.5336 3.91756C28.9548 7.55083 15.8502 20.3411 9.24346 36.1444C8.99877 36.7352 8.21031 36.5284 8.21031 35.9081C8.29187 30.0003 6.1712 24.447 3.15332 19.1891" stroke="#F99AF9" stroke-width="5.05405" stroke-miterlimit="10" stroke-linecap="round"/>
</svg>
