<svg width="54" height="54" viewBox="0 0 54 54" fill="none" xmlns="http://www.w3.org/2000/svg">
<path d="M26.6684 4.9375C14.4629 4.9375 4.55704 14.8434 4.55704 27.0489C4.55704 39.2544 14.4629 49.1603 26.6684 49.1603C38.8739 49.1603 48.7799 39.2544 48.7799 27.0489C48.7799 14.8434 38.8739 4.9375 26.6684 4.9375ZM36.9281 19.9733C36.5965 23.4669 35.1592 31.9576 34.4295 35.8714C34.12 37.5297 33.5009 38.0825 32.926 38.1488C31.6435 38.2594 30.6706 37.3086 29.4324 36.4905C27.4866 35.208 26.381 34.412 24.5015 33.1738C22.3125 31.7365 23.7276 30.9405 24.988 29.6581C25.3196 29.3264 30.9802 24.1744 31.0907 23.7101C31.1061 23.6398 31.104 23.5667 31.0848 23.4974C31.0655 23.428 31.0296 23.3644 30.9802 23.3121C30.8475 23.2015 30.6706 23.2457 30.5158 23.2679C30.3168 23.3121 27.2212 25.3684 21.1848 29.4369C20.3004 30.0339 19.5043 30.3435 18.7968 30.3214C18.0008 30.2993 16.4972 29.8792 15.3695 29.5033C13.9765 29.061 12.893 28.8178 12.9815 28.0439C13.0257 27.6459 13.5785 27.2479 14.6177 26.8278C21.0743 24.0196 25.3639 22.1623 27.5087 21.2778C33.6556 18.7129 34.916 18.2707 35.7562 18.2707C35.9331 18.2707 36.3532 18.3149 36.6186 18.536C36.8397 18.7129 36.906 18.9561 36.9281 19.133C36.906 19.2657 36.9502 19.6637 36.9281 19.9733Z" fill="white"/>
</svg>
