<svg width="54" height="54" viewBox="0 0 54 54" fill="none" xmlns="http://www.w3.org/2000/svg">
<path d="M36.7722 13.3834C35.2607 11.6578 34.4278 9.44186 34.4284 7.14795H27.596V34.5661C27.5433 36.0498 26.9169 37.4552 25.8487 38.4863C24.7804 39.5174 23.3538 40.0937 21.8691 40.0939C18.7293 40.0939 16.1202 37.529 16.1202 34.345C16.1202 30.5418 19.7907 27.6894 23.5717 28.8613V21.8741C15.9433 20.857 9.26562 26.7829 9.26562 34.345C9.26562 41.7081 15.3684 46.9485 21.847 46.9485C28.79 46.9485 34.4284 41.3101 34.4284 34.345V20.4369C37.199 22.4266 40.5253 23.4941 43.9363 23.4883V16.6559C43.9363 16.6559 39.7794 16.8549 36.7722 13.3834Z" fill="white"/>
</svg>
