<svg width="111" height="141" viewBox="0 0 111 141" fill="none" xmlns="http://www.w3.org/2000/svg">
<path d="M160.637 35.7541C149.534 8.5176 113.796 -5.61335 88.6902 7.33154C81.653 10.9505 75.3536 16.5949 72.4895 24.0849C68.8778 33.5522 71.6881 46.2157 82.1792 50.7255C85.4108 52.1163 89.0696 52.2921 92.3231 51.1892C102.932 47.6363 102.964 34.7771 97.0088 27.1954C92.4483 21.3692 85.2028 18.3109 78.0999 17.1676C52.9816 13.1218 27.572 33.4806 25.876 59.0529C25.1799 69.453 28.3317 80.9057 37.2272 87.1545C41.4421 90.1283 46.685 91.374 51.6034 90.3981C66.1416 87.5513 66.2626 69.6324 57.4622 60.9389C50.513 54.1006 39.814 52.5151 30.7359 54.9642C14.2968 59.4074 2.80125 76.0908 2.4236 93.5399C2.08965 109.723 10.5393 125.789 23.1898 136.246C23.6633 136.634 23.296 137.355 22.7396 137.199C17.4597 135.63 11.9898 136.309 6.57799 137.942" stroke="#3586FF" stroke-width="4.68047" stroke-miterlimit="10" stroke-linecap="round"/>
</svg>
