<svg width="69" height="104" viewBox="0 0 69 104" fill="none" xmlns="http://www.w3.org/2000/svg">
<path d="M118.522 26.3285C110.328 6.22702 83.952 -4.20211 65.4233 5.35167C60.2295 8.02261 55.5804 12.1883 53.4666 17.7162C50.801 24.7034 52.8751 34.0495 60.6179 37.3779C63.0029 38.4044 65.7032 38.5341 68.1044 37.7202C75.9341 35.098 75.9577 25.6074 71.5626 20.0119C68.1968 15.7119 62.8494 13.4548 57.6072 12.611C39.069 9.62506 20.3158 24.6506 19.0641 43.5238C18.5504 51.1994 20.8765 59.6519 27.4417 64.2638C30.5525 66.4585 34.4219 67.3779 38.0519 66.6576C48.7816 64.5567 48.8709 51.3319 42.3759 44.9158C37.2471 39.8689 29.3509 38.6987 22.6509 40.5062C10.5183 43.7855 2.0342 56.0984 1.75548 68.9764C1.50901 80.9201 7.74515 92.7773 17.0817 100.495C17.4311 100.782 17.16 101.314 16.7494 101.198C12.8526 100.041 8.81569 100.542 4.82157 101.747" stroke="#3586FF" stroke-width="3.45435" stroke-miterlimit="10" stroke-linecap="round"/>
</svg>
