<svg width="99" height="68" viewBox="0 0 99 68" fill="none" xmlns="http://www.w3.org/2000/svg">
<path d="M-12.7336 29.4707C-19.2299 27.0411 -22.3635 18.2768 -18.9083 12.2731C-16.75 8.55772 -12.7584 6.25799 -8.70091 4.83195C-0.157779 1.8059 9.71706 2.04584 17.6069 6.498C25.4967 10.9502 30.9513 19.9189 30.1778 28.9423C29.9168 32.0257 28.8919 35.19 26.6414 37.3097C24.3909 39.4293 20.7454 40.2619 18.1102 38.6381C15.7001 37.161 14.6624 34.0426 15.0507 31.2562C15.4389 28.4698 16.9997 25.9507 18.8039 23.7917C25.61 15.6118 36.5059 11.1683 47.1401 11.7397C57.7742 12.3111 67.9569 17.6479 74.8576 25.7596C77.2596 28.5907 79.3275 31.7892 80.1672 35.4141C81.0069 39.039 80.4603 43.0815 78.1327 45.9564C76.2164 48.3066 72.9709 49.6454 70.0415 49.1387C69.4995 49.0434 69.1625 49.6858 69.515 50.1296C72.9935 54.4366 75.5803 59.1944 77.3647 64.4107C77.6376 65.2179 78.6804 65.3944 79.2173 64.7061C83.5077 59.0141 89.4204 54.5498 96.0678 52.0183" stroke="#9AC3FF" stroke-width="4.34704" stroke-miterlimit="10" stroke-linecap="round"/>
</svg>
