<svg width="148" height="110" viewBox="0 0 148 110" fill="none" xmlns="http://www.w3.org/2000/svg">
<path d="M-11.8933 54.4071C-20.8107 51.072 -25.1122 39.0412 -20.3692 30.7998C-17.4066 25.6997 -11.9273 22.5428 -6.35752 20.5853C5.36971 16.4314 18.925 16.7608 29.7554 22.8723C40.5858 28.9838 48.0734 41.2952 47.0116 53.6818C46.6533 57.9144 45.2465 62.2581 42.1572 65.1677C39.0678 68.0774 34.0638 69.2203 30.4463 66.9912C27.138 64.9637 25.7135 60.683 26.2465 56.8581C26.7795 53.0332 28.9219 49.5752 31.3985 46.6115C40.7414 35.3828 55.6983 29.2832 70.2959 30.0676C84.8934 30.852 98.8713 38.1778 108.344 49.3129C111.641 53.1991 114.48 57.5898 115.632 62.5657C116.785 67.5416 116.035 73.0908 112.84 77.0372C110.209 80.2634 105.754 82.1011 101.733 81.4056C100.989 81.2747 100.526 82.1565 101.01 82.7657C105.785 88.6781 109.336 95.2091 111.785 102.369C112.16 103.478 113.592 103.72 114.329 102.775C120.218 94.9616 128.334 88.8334 137.459 85.3584" stroke="#9AC3FF" stroke-width="5.96721" stroke-miterlimit="10" stroke-linecap="round"/>
</svg>
