<svg width="48" height="48" viewBox="0 0 48 48" fill="none" xmlns="http://www.w3.org/2000/svg">
<rect x="-1" y="1" width="46" height="46" transform="matrix(-1 0 0 1 46 0)" fill="white"/>
<rect x="-1" y="1" width="46" height="46" transform="matrix(-1 0 0 1 46 0)" stroke="#F9CD37" stroke-width="2"/>
<path fill-rule="evenodd" clip-rule="evenodd" d="M22.621 14.7123C22.2044 14.2958 21.529 14.2958 21.1125 14.7123L12.5791 23.2457C12.1626 23.6622 12.1626 24.3376 12.5791 24.7541L21.1125 33.2876C21.529 33.704 22.2044 33.704 22.621 33.2876C23.0375 32.8709 23.0375 32.1955 22.621 31.7789L15.9085 25.0666H34.6667C35.2558 25.0666 35.7334 24.589 35.7334 23.9999C35.7334 23.4108 35.2558 22.9332 34.6667 22.9332H15.9085L22.621 16.2208C23.0375 15.8043 23.0375 15.1289 22.621 14.7123Z" fill="#F9CD37"/>
</svg>
