<svg width="48" height="48" viewBox="0 0 48 48" fill="none" xmlns="http://www.w3.org/2000/svg">
<rect x="-1" y="1" width="46" height="46" transform="matrix(-1 0 0 1 46 0)" fill="white"/>
<rect x="-1" y="1" width="46" height="46" transform="matrix(-1 0 0 1 46 0)" stroke="#FE6A5D" stroke-width="2"/>
<path fill-rule="evenodd" clip-rule="evenodd" d="M22.621 14.7125C22.2044 14.2959 21.529 14.2959 21.1125 14.7125L12.5791 23.2458C12.1626 23.6623 12.1626 24.3377 12.5791 24.7543L21.1125 33.2877C21.529 33.7041 22.2044 33.7041 22.621 33.2877C23.0375 32.8711 23.0375 32.1957 22.621 31.779L15.9085 25.0667H34.6667C35.2558 25.0667 35.7334 24.5891 35.7334 24C35.7334 23.4109 35.2558 22.9334 34.6667 22.9334H15.9085L22.621 16.2209C23.0375 15.8044 23.0375 15.129 22.621 14.7125Z" fill="#FE6A5D"/>
</svg>
